<?xml version="1.0" encoding="utf-8"?>
<!-- Generator: Adobe Illustrator 19.2.0, SVG Export Plug-In . SVG Version: 6.00 Build 0)  -->
<svg version="1.1" id="Capa_1" xmlns="http://www.w3.org/2000/svg" xmlns:xlink="http://www.w3.org/1999/xlink" x="0px" y="0px"
	 viewBox="0 0 58 58" style="enable-background:new 0 0 58 58;" xml:space="preserve">
<style type="text/css">
	.st0{opacity:0.65;fill:#FFFFFF;}
	.st1{fill:#607D8B;}
</style>
<g>
	<g>
		<path class="st0" d="M9.6,56C5.4,56,2,52.6,2,48.4V9.6C2,5.4,5.4,2,9.6,2h38.8C52.6,2,56,5.4,56,9.6v38.8c0,4.2-3.4,7.6-7.6,7.6
			H9.6z"/>
		<path class="st1" d="M48.4,4C51.5,4,54,6.5,54,9.6v38.8c0,3.1-2.5,5.6-5.6,5.6H9.6C6.5,54,4,51.5,4,48.4V9.6C4,6.5,6.5,4,9.6,4
			H48.4 M48.4,0H9.6C4.3,0,0,4.3,0,9.6v38.8C0,53.7,4.3,58,9.6,58h38.8c5.3,0,9.6-4.3,9.6-9.6V9.6C58,4.3,53.7,0,48.4,0L48.4,0z"/>
	</g>
	<g>
		<path class="st1" d="M45.7,41.1c0,1.9-0.6,3.4-1.7,4.5c-1.1,1.1-2.7,1.6-4.6,1.6H18.7c-1.9,0-3.4-0.5-4.6-1.6
			c-1.2-1.1-1.7-2.6-1.7-4.5c0-0.8,0-1.7,0.1-2.5c0.1-0.8,0.2-1.7,0.3-2.6c0.2-0.9,0.4-1.8,0.6-2.6c0.3-0.8,0.6-1.6,1-2.3
			c0.4-0.7,0.9-1.4,1.5-1.9c0.6-0.5,1.2-1,2-1.3c0.8-0.3,1.7-0.5,2.6-0.5c0.1,0,0.5,0.2,1,0.5c0.5,0.3,1.1,0.7,1.8,1.1
			c0.7,0.4,1.5,0.8,2.6,1.1c1,0.3,2.1,0.5,3.2,0.5c1.1,0,2.1-0.2,3.2-0.5c1-0.3,1.9-0.7,2.6-1.1c0.7-0.4,1.2-0.8,1.8-1.1
			c0.5-0.3,0.9-0.5,1-0.5c1,0,1.8,0.2,2.6,0.5c0.8,0.3,1.5,0.7,2,1.3c0.6,0.5,1,1.2,1.5,1.9c0.4,0.7,0.8,1.5,1,2.3
			c0.3,0.8,0.5,1.6,0.6,2.6c0.2,0.9,0.3,1.8,0.3,2.6C45.6,39.4,45.7,40.2,45.7,41.1z M35.4,13.5c1.8,1.8,2.7,3.9,2.7,6.4
			s-0.9,4.7-2.7,6.4S31.5,29,29,29c-2.5,0-4.7-0.9-6.4-2.7c-1.8-1.8-2.7-3.9-2.7-6.4s0.9-4.7,2.7-6.4c1.8-1.8,3.9-2.7,6.4-2.7
			C31.5,10.8,33.7,11.7,35.4,13.5z"/>
	</g>
</g>
</svg>
