<?xml version="1.0" encoding="utf-8"?>
<!-- Generator: Adobe Illustrator 19.2.0, SVG Export Plug-In . SVG Version: 6.00 Build 0)  -->
<svg version="1.1" id="Capa_1" xmlns="http://www.w3.org/2000/svg" xmlns:xlink="http://www.w3.org/1999/xlink" x="0px" y="0px"
	 viewBox="0 0 91.8 91.8" style="enable-background:new 0 0 91.8 91.8;" xml:space="preserve">
<style type="text/css">
	.st0{fill:#607D8B;}
</style>
<g>
	<path class="st0" d="M61.1,28.7h-5c-1.1,0-2,0.9-2,2v4.8c0,1.1,0.9,2,2,2h5c1.1,0,2-0.9,2-2v-4.8C63.1,29.6,62.2,28.7,61.1,28.7z"
		/>
	<path class="st0" d="M59.7,46.3c0,7.4-6.2,13.4-13.8,13.4s-13.8-6-13.8-13.4c0-1.3,0.2-2.6,0.6-3.8h-4.1v18.7c0,1,0.8,1.8,1.8,1.8
		h30.9c1,0,1.8-0.8,1.8-1.8V42.5h-3.9C59.5,43.7,59.7,45,59.7,46.3z"/>
	<path class="st0" d="M45.9,54.5c4.9,0,8.9-3.9,8.9-8.6c0-4.8-4-8.6-8.9-8.6S37,41.2,37,45.9S41,54.5,45.9,54.5z"/>
	<path class="st0" d="M45.9,0C20.6,0,0,20.6,0,45.9c0,25.4,20.6,45.9,45.9,45.9c25.4,0,45.9-20.6,45.9-45.9S71.3,0,45.9,0z
		 M68.1,62.4c0,3.1-2.6,5.7-5.7,5.7h-33c-3.1,0-5.7-2.6-5.7-5.7v-33c0-3.1,2.6-5.7,5.7-5.7h33c3.1,0,5.7,2.6,5.7,5.7V62.4z"/>
</g>
</svg>
