<?xml version="1.0" encoding="utf-8"?>
<!-- Generator: Adobe Illustrator 19.2.0, SVG Export Plug-In . SVG Version: 6.00 Build 0)  -->
<svg version="1.1" id="Capa_1" xmlns="http://www.w3.org/2000/svg" xmlns:xlink="http://www.w3.org/1999/xlink" x="0px" y="0px"
	 viewBox="0 0 91.8 91.8" style="enable-background:new 0 0 91.8 91.8;" xml:space="preserve">
<style type="text/css">
	.st0{fill:#607D8B;}
</style>
<path class="st0" d="M45.9,0C20.6,0,0,20.6,0,45.9c0,25.4,20.6,45.9,45.9,45.9c25.4,0,45.9-20.6,45.9-45.9S71.3,0,45.9,0z
	 M58.4,29.8h-4.5c-3.5,0-4.2,1.7-4.2,4.2v5.5h8.5L57,48h-7.3v21.9h-8.8V48h-7.4v-8.5h7.4v-6.3c0-7.3,4.5-11.3,11-11.3
	c3.1,0,5.8,0.2,6.6,0.3L58.4,29.8L58.4,29.8z"/>
</svg>
