<?xml version="1.0" encoding="utf-8"?>
<!-- Generator: Adobe Illustrator 19.2.0, SVG Export Plug-In . SVG Version: 6.00 Build 0)  -->
<svg version="1.1" id="Capa_1" xmlns="http://www.w3.org/2000/svg" xmlns:xlink="http://www.w3.org/1999/xlink" x="0px" y="0px"
	 viewBox="0 0 58 58" style="enable-background:new 0 0 58 58;" xml:space="preserve">
<style type="text/css">
	.st0{clip-path:url(#SVGID_2_);}
	.st1{fill:#FFFF74;}
	.st2{fill:#FF403B;}
	.st3{fill:#FFFFFF;}
</style>
<g>
	<g>
		<defs>
			<circle id="SVGID_1_" cx="29" cy="29" r="25"/>
		</defs>
		<clipPath id="SVGID_2_">
			<use xlink:href="#SVGID_1_"  style="overflow:visible;"/>
		</clipPath>
		<g class="st0">
			<rect x="4" y="4" class="st1" width="50" height="5.6"/>
			<rect x="4" y="15.1" class="st1" width="50" height="5.6"/>
			<rect x="4" y="26.2" class="st1" width="50" height="5.6"/>
			<rect x="4" y="37.3" class="st1" width="50" height="5.6"/>
			<rect x="4" y="48.4" class="st1" width="50" height="5.6"/>
			<rect x="4" y="9.6" class="st2" width="50" height="5.6"/>
			<rect x="4" y="20.7" class="st2" width="50" height="5.6"/>
			<rect x="4" y="31.8" class="st2" width="50" height="5.6"/>
			<rect x="4" y="42.9" class="st2" width="50" height="5.6"/>
		</g>
	</g>
</g>
<path class="st3" d="M29,4c13.8,0,25,11.2,25,25S42.8,54,29,54S4,42.8,4,29S15.2,4,29,4 M29,0C13,0,0,13,0,29s13,29,29,29
	s29-13,29-29S45,0,29,0L29,0z"/>
</svg>
