<?xml version="1.0" encoding="utf-8"?>
<!-- Generator: Adobe Illustrator 19.2.0, SVG Export Plug-In . SVG Version: 6.00 Build 0)  -->
<svg version="1.1" id="Capa_1" xmlns="http://www.w3.org/2000/svg" xmlns:xlink="http://www.w3.org/1999/xlink" x="0px" y="0px"
	 viewBox="0 0 88.2 23.8" style="enable-background:new 0 0 88.2 23.8;" xml:space="preserve">
<style type="text/css">
	.st0{fill:#FFFFFF;}
</style>
<g>
	<path class="st0" d="M20.4,20.1c-0.1,0.1-0.3,0.1-0.6,0c-0.2-0.1-0.4-0.2-0.5-0.5c-0.1-0.2-0.3-0.6-0.3-1c-0.1-0.7-0.2-1.6-0.1-2.7
		c0-1.1,0.1-2.3,0.2-3.5c0-0.8,0.1-1.6,0.2-2.5c0-0.8,0.1-1.6,0.1-2.4c0-1.4,0-2.7-0.2-3.8c-0.2-1.1-0.6-1.8-1.2-2.1
		c-0.6-0.3-1.1-0.4-1.6-0.3c-0.5,0-0.9,0.2-1.3,0.4c-0.3,0.2-0.7,0.4-1,0.8c-0.3,0.3-0.6,0.6-0.8,1c-0.5,0.7-0.8,1.3-1.1,1.9
		c-0.3,0.7-0.5,1.1-0.6,1.3c0-0.1,0-0.6,0-1.2c0-0.7-0.1-1.4-0.3-2.1c-0.1-0.4-0.2-0.8-0.4-1.2c-0.1-0.4-0.3-0.8-0.6-1.1
		C10,0.9,9.7,0.6,9.5,0.4C9.2,0.2,8.9,0.1,8.5,0C8.4,0,8.3,0,8.3,0C8,0,7.8,0,7.5,0.1C7.2,0.3,6.9,0.5,6.6,0.7
		C6.3,1,6.1,1.3,5.8,1.6C5.6,2,5.3,2.4,5.2,2.7c-0.4,0.7-0.7,1.4-0.9,2C4,5.3,3.9,5.7,3.9,5.8C3.8,5.1,3.7,4.4,3.5,3.6
		C3.3,2.9,3.2,2.3,3,1.8C2.9,1.6,2.7,1.4,2.6,1.3C2.5,1.2,2.3,1.1,2.2,1.1c-0.4,0-0.9,0.3-1.3,1C0.4,2.7,0.1,3.4,0,4.1
		C0.3,4.2,0.5,4.9,0.6,6c0.1,1.2,0.1,2.5,0,4c-0.1,1.2-0.1,2.4-0.2,3.6c-0.1,1.2-0.2,2.3-0.2,3.2c0,0.5-0.1,0.9-0.1,1.3
		c0,0.4,0,0.6,0,0.8c0.1,0.4,0.2,0.8,0.4,1.1c0.2,0.3,0.4,0.5,0.6,0.7c0.6,0.4,1.3,0.5,2,0.3c0.7-0.2,1.2-0.4,1.5-0.8
		c0.1-0.9,0.2-2,0.2-3.3c0-1.3-0.1-2.6-0.1-3.9c0-0.7-0.1-1.4-0.1-2.1C4.4,10.2,4.3,9.6,4.3,9c0-0.2,0.1-0.6,0.2-1.1
		c0.1-0.5,0.3-1,0.6-1.5c0.4-0.8,0.8-1.6,1.3-2.2c0.5-0.7,0.9-1,1.2-0.9C8.1,3.3,8.4,3.9,8.6,5c0.2,1.1,0.3,2.4,0.4,3.7
		c0,0.9,0,1.8,0,2.8c0,0.9-0.1,1.7-0.1,2.3c0.1,0.6,0.5,0.8,1.1,0.7c0.6-0.1,1.1-0.4,1.5-0.9c0.1-0.2,0.2-0.3,0.3-0.5
		c0.1-0.2,0.1-0.4,0.1-0.6c0-0.6,0.1-1.2,0.2-1.8c0.1-0.6,0.3-1.3,0.5-1.9c0.3-1.2,0.7-2.2,1.2-3.1c0.5-0.9,0.9-1.3,1.3-1.1
		c0.1,0,0.2,0.5,0.1,1.3c-0.1,0.8-0.2,1.8-0.4,3c-0.1,0.7-0.2,1.3-0.2,2.1c-0.1,0.7-0.1,1.5-0.2,2.3c-0.1,1.4-0.1,2.9,0,4.3
		s0.3,2.6,0.8,3.7c0.3,0.6,0.6,1.2,1.1,1.6c0.5,0.4,1,0.7,1.7,0.8c0.2,0,0.3,0,0.4,0c0.2,0,0.4-0.1,0.6-0.1c0.3-0.1,0.6-0.3,0.9-0.5
		c0.4-0.4,0.7-1,0.9-1.6c0.1-0.3,0.1-0.5,0.1-0.8c0-0.3-0.1-0.6-0.2-0.9C20.6,19.9,20.5,20,20.4,20.1z"/>
	<path class="st0" d="M31.8,14.4c-0.2,0.5-0.5,1-0.8,1.6c-0.3,0.6-0.6,1.2-0.9,1.8c-0.6,1.1-1.2,2.1-1.8,3c-0.6,0.9-1.2,1.2-1.6,1.1
		c-0.2,0-0.3-0.2-0.4-0.4s-0.2-0.6-0.3-1c-0.1-0.7-0.1-1.6-0.1-2.8c0-1.1,0.1-2.3,0.3-3.6c0.1-1.5,0.3-3.1,0.5-4.6
		c0.1-1.1,0.3-1.9,0.4-2.9H29c0.2,0,0.3-0.3,0.3-0.5c0,0,0,0,0-0.1c0-0.2-0.1-0.4-0.3-0.5c-0.1,0.1-0.3,0.1-0.6,0.1
		c-0.3,0-0.6,0-1,0h-0.3c0.1,0,0.1-0.9,0.2-1.3c0-0.4,0-0.6,0-0.6c-0.1-0.5-0.4-0.9-1-1.2c-0.3-0.2-0.7-0.2-0.9-0.2
		c-0.2,0-0.4,0-0.6,0.1c-0.1,0.1-0.2,0.1-0.2,0.2c-0.1,0.1-0.1,0.2-0.1,0.3c0,0.1,0,0.3,0,0.7s-0.1,0.9-0.2,1.5
		c0,0.1-0.1,0.3-0.1,0.4c-0.3,0-0.5,0-0.8,0c-0.3,0-0.7,0-1,0c-0.2,0-0.4,0.2-0.4,0.6v0c0,0.3,0.1,0.5,0.4,0.5c0.6,0,1.1,0,1.6,0
		c-0.1,0.8-0.3,1.7-0.5,2.7c-0.3,1.7-0.3,3.4-0.5,5.2c-0.1,1.3,0,2.5,0,3.7v0.3c0,1.3,0,2.4,0.2,3.2c0.2,0.5,0.3,0.9,0.5,1.2
		c0.3,0.3,0.5,0.5,0.9,0.7c0.2,0.1,0.4,0.1,0.7,0.1c0.4,0,0.9-0.1,1.3-0.4c0.7-0.4,1.3-0.9,1.9-1.7c0.9-1.1,1.7-2.3,2.5-3.8
		c0.7-1.4,1.3-2.6,1.7-3.6c-0.2-0.1-0.3-0.1-0.5-0.1C32.1,14.3,31.9,14.3,31.8,14.4z"/>
	<path class="st0" d="M46.9,19.7c-0.2,0-0.5,0-0.9,0c-0.1-0.8-0.1-1.9-0.1-3.3c0-1.4,0.1-3,0.2-4.6c0.1-1.6,0.1-3.2,0.2-4.7
		c0.1-1.5,0.2-2.9,0.3-4c0-0.6,0.1-1.1,0.1-1.5c0-0.4,0.1-0.7,0.1-0.9c0-0.1-0.1-0.3-0.1-0.4c-0.1-0.1-0.2-0.2-0.3-0.2
		c-0.2-0.1-0.5-0.2-0.8-0.2c-0.2,0-0.4,0-0.6,0.1c-0.6,0.1-1,0.2-1.1,0.3c-0.3,0.3-0.7,0.8-1.1,1.4c-0.4,0.6-0.9,1.1-1.5,1.4
		c-0.3,0.4-0.4,0.7-0.2,1c0.1,0.2,0.3,0.4,0.5,0.4C41.7,4.4,42,4.2,42.2,4c0.3-0.2,0.5-0.4,0.7-0.6c0,0.1,0.1,0.3,0.1,0.7v1.3
		c0,0.9,0,2.1,0,3.4v4.1c0,1.4-0.1,2.7-0.1,4c0,1.2-0.1,2.1-0.1,2.8c-0.2,0-0.5,0.1-0.8,0.1c-0.3,0-0.5,0-0.9,0
		c-0.1,0.1-0.2,0.4-0.2,1v0.1c0,0.5,0.1,0.8,0.3,0.9c0.2,0,0.5,0,0.8-0.1c0.3,0,0.7-0.1,1-0.1c0.7-0.1,1.4-0.2,2.1-0.4
		c0.7-0.1,1.3-0.2,1.8-0.2c0.2-0.1,0.4-0.2,0.5-0.5c0-0.1,0.1-0.2,0.1-0.3c0-0.1,0-0.3-0.1-0.4C47.3,19.7,47.1,19.7,46.9,19.7z"/>
	<path class="st0" d="M58.5,1.9c-0.5-0.4-1-0.7-1.5-0.9c-0.9-0.4-1.8-0.5-2.7-0.5c-0.2,0-0.4,0-0.5,0c-1.1,0.1-2.1,0.4-2.9,1
		c-0.5,0.4-1,0.9-1.3,1.6C49.2,3.7,49,4.4,49,5.3c0,0,0,0.1,0,0.1c0,0.9,0.2,1.7,0.6,2.3C50,8.3,50.4,8.9,51,9.3
		c0.7,0.5,1.4,0.8,2.1,1c0.8,0.2,1.5,0.2,2.1,0.1c0.3,0,0.6-0.1,0.9-0.2c0.2-0.1,0.4-0.3,0.6-0.4c-0.2,0.8-0.4,1.6-0.5,2.4
		c-0.2,0.9-0.3,1.7-0.5,2.5c-0.3,1.5-0.5,2.9-0.6,4.2c-0.2,1.2-0.3,1.9-0.4,2.1c0.4,0.4,0.8,0.7,1.1,0.8c0.2,0.1,0.5,0.1,0.7,0.1
		c0.1,0,0.2,0,0.3,0c0.5-0.1,1-0.5,1.3-1c0.3-0.6,0.5-1.1,0.6-1.6c-0.1,0-0.2-0.2-0.2-0.5c0-0.3,0-0.6,0-1c0.1-0.8,0.3-1.8,0.5-3
		c0.2-1.2,0.5-2.5,0.7-3.8c0.3-1.6,0.5-3.2,0.6-4.7c0-0.3,0-0.5,0-0.8c0-1.1-0.2-1.8-0.5-2.3C59.4,2.7,59,2.3,58.5,1.9z M57,4.9
		c0,0.6,0,1.2-0.1,1.8c-0.1,0.6-0.2,1.3-0.4,1.6c-0.3,0.1-0.6,0.4-0.9,0.4c0,0-0.1,0-0.1,0c-0.4,0-0.7-0.3-1.1-0.4
		C53.8,8,53.2,7.6,52.7,7C52.2,6.5,52,5.8,52,5.2c0,0,0-0.1,0-0.1c0-0.5,0.1-0.9,0.3-1.3c0.2-0.4,0.4-0.7,0.7-0.9
		c0.5-0.3,1-0.5,1.5-0.6c0.1,0,0.3,0,0.4,0c0.4,0,0.8,0.1,1.1,0.2c0.2,0.1,0.4,0.2,0.6,0.3c0.2,0.1,0.3,0.3,0.3,0.5
		c0.1,0.2,0,0.4,0,0.7c0,0.2-0.1,0.5-0.1,0.8C57,4.8,57,4.9,57,4.9z"/>
	<path class="st0" d="M64.1,9.4C64.1,9.4,64,9.4,64.1,9.4c-0.5,0-0.9,0.1-1.4,0.4c-0.5,0.3-0.7,0.6-0.7,1c0,0,0,0,0,0.1
		c0,0.5,0.3,1,0.8,1.2c0.6,0.2,1,0.5,1.5,0.5c0,0,0,0,0,0c0.1,0,0.3-0.2,0.4-0.3c0.2-0.1,0.3-0.2,0.5-0.4c0.3-0.3,0.5-0.6,0.4-0.9
		c0-0.4-0.2-0.8-0.5-1.2C64.9,9.6,64.5,9.4,64.1,9.4z"/>
	<path class="st0" d="M64.5,20c-0.5-0.2-1-0.4-1.5-0.4c0,0,0,0,0,0c-0.3,0-0.4,0.1-0.7,0.4C62,20.3,62,20.5,62,20.8c0,0,0,0.1,0,0.1
		c0,0.4,0.1,0.8,0.4,1.2c0.3,0.4,0.5,0.6,0.9,0.6c0,0,0.1,0,0.1,0c0.4,0,0.8-0.2,1.3-0.5c0.4-0.2,0.6-0.6,0.7-0.9c0-0.1,0-0.2,0-0.3
		C65.4,20.6,65.1,20.3,64.5,20z"/>
	<path class="st0" d="M77.5,17.8c0,0.4-0.3,0.7-0.9,0.7c-0.6,0.1-1.4,0.1-2.1,0c-0.5,0-1.1-0.1-1.6-0.1c-0.5,0-1,0-1.4,0
		c0.5-0.7,1.1-1.6,2-2.7c0.8-1.1,1.6-2.2,2.4-3.5c0.4-0.7,0.9-1.3,1.2-2c0.4-0.7,0.8-1.4,1.1-2c0.6-1.3,1-2.4,1.1-3.5
		c0.1-1.1-0.1-2-0.8-2.7C78,1.5,77.5,1.2,77,1c-0.5-0.2-1-0.3-1.5-0.3c0,0-0.1,0-0.1,0c-0.6,0-1.2,0.1-1.8,0.3
		c-0.6,0.2-1.2,0.5-1.7,0.8c-1,0.6-1.9,1.3-2.7,2.1c-0.7,0.8-1.1,1.5-1.2,2.1c0.2,0.6,0.5,0.8,1,0.9c0.5,0,0.8-0.1,0.8-0.3
		c0.1-0.3,0.4-0.7,0.8-1c0.4-0.4,0.9-0.7,1.5-1.1C73.1,3.9,74,3.6,75,3.3c0.9-0.2,1.6-0.2,2,0.2c0.2,0.2,0,0.9-0.8,2.1
		c-0.8,1.2-1.7,2.5-2.8,3.9c-0.5,0.6-1,1.3-1.4,1.9s-1,1.3-1.4,1.9c-0.8,1.1-1.6,2.1-2.2,3c-0.7,0.9-1,1.6-1.1,1.9c0,0,0,0.1,0,0.2
		c0,0.2,0,0.4,0.1,0.5c0.1,0.2,0.2,0.5,0.3,0.8c0.2,0.5,0.6,0.9,0.9,1.2c0.4,0.4,0.7,0.6,1,0.6c1.5-0.2,2.7-0.1,3.6-0.1
		c0.9,0,1.8,0.2,2.5,0.2c0.4,0,0.8,0,1.3,0c0.4,0,0.9-0.3,1.4-0.3c1-0.6,1.6-1.3,1.6-1.9c0-0.1,0-0.3-0.1-0.4
		C79.4,18.4,78.7,17.9,77.5,17.8z"/>
	<path class="st0" d="M88.1,19.7c-0.2,0-0.4,0.1-0.7,0.1c-0.2,0-0.5,0-0.9,0c-0.1-0.8-0.1-1.9-0.1-3.3c0-1.4,0.1-3,0.2-4.6
		c0.1-1.6,0.1-3.2,0.2-4.7c0.1-1.5,0.2-2.9,0.3-4c0-0.6,0.1-1.1,0.1-1.5c0-0.4,0.1-0.7,0.1-0.9c0-0.1-0.1-0.3-0.1-0.4
		c-0.1-0.1-0.2-0.2-0.3-0.2c-0.2-0.1-0.5-0.2-0.8-0.2c-0.2,0-0.4,0-0.6,0.1c-0.6,0.1-1,0.2-1.1,0.3c-0.3,0.3-0.7,0.8-1.1,1.4
		c-0.4,0.6-0.9,1.1-1.5,1.4c-0.3,0.4-0.4,0.7-0.2,1c0.1,0.2,0.3,0.4,0.5,0.4c0.3-0.1,0.5-0.3,0.8-0.5c0.3-0.2,0.3-0.4,0.4-0.6
		c0,0.1-0.2,0.3-0.2,0.7v1.3c0,0.9,0,2.1,0,3.4v4.1c0,1.4,0.2,2.7,0.2,4c0,1.2,0.1,2.1,0.1,2.8c-0.2,0-0.5,0.1-0.7,0.1
		c-0.3,0-0.8,0-1.1,0c-0.1,0.1-0.4,0.4-0.4,1v0.1c0,0.5,0.3,0.8,0.6,0.9c0.2,0,0.6,0,1-0.1c0.3,0,0.7-0.1,1.1-0.1
		c0.7-0.1,1.4-0.2,2.2-0.4c0.7-0.1,1.3-0.2,1.8-0.2c0.2-0.1,0.4-0.2,0.5-0.5c0-0.1,0.1-0.2,0.1-0.3C88.2,19.9,88.2,19.8,88.1,19.7z"
		/>
</g>
</svg>
