<?xml version="1.0" encoding="utf-8"?>
<!-- Generator: Adobe Illustrator 19.2.0, SVG Export Plug-In . SVG Version: 6.00 Build 0)  -->
<svg version="1.1" id="Capa_1" xmlns="http://www.w3.org/2000/svg" xmlns:xlink="http://www.w3.org/1999/xlink" x="0px" y="0px"
	 viewBox="0 0 404.5 60.6" style="enable-background:new 0 0 404.5 60.6;" xml:space="preserve">
<style type="text/css">
	.st0{fill:#FFFFFF;}
</style>
<g>
	<path class="st0" d="M0,2.6c0.1-0.5,0.4-1,0.7-1.3c0.3-0.4,0.7-0.7,1.2-0.9C2.5,0.1,3.2,0,3.9,0c0.3,0,0.6,0,0.9,0
		c1.1,0.2,2,0.6,2.9,1.4c1.1,1,2.1,2.6,3,4.8c0.9,2.2,1.8,4.7,2.7,7.6c0.5,1.5,0.9,3.1,1.4,4.7c0.5,1.7,0.9,3.3,1.3,5
		c0.7,2.6,1.3,5.1,2,7.7c0.7,2.5,1.4,4.8,2,7c0.2-0.4,0.6-2,1.2-4.9c0.6-2.8,1.3-6,1.9-9.6c0.5-2.8,1-5.6,1.5-8.4
		c0.5-2.8,0.9-5.2,1.2-7.3c0.2-1.1,0.3-2,0.3-2.7c0.1-0.7,0.1-1.3,0.1-1.5c0.4-0.6,0.7-0.9,1.2-1.2c0.4-0.3,0.8-0.4,1.3-0.4
		c0.8,0,1.6,0.2,2.3,0.6c0.7,0.5,1.3,0.9,1.5,1.2c-0.4,0.5-0.8,1.9-1.3,4.1c-0.5,2.2-1,4.8-1.6,7.9l-1,5.1c-0.4,1.8-0.8,3.6-1.2,5.4
		c-0.8,3.4-1.8,6.7-2.8,9.9c-1.1,3.2-2.3,5.7-3.7,7.7c-0.5,0.7-1.3,1.1-2.3,1.2h-0.4c-0.9,0-1.7-0.2-2.6-0.6
		c-0.6-0.3-1.1-0.7-1.5-1.1c-0.4-0.4-0.8-0.9-1.1-1.6c0-0.2-0.1-0.7-0.2-1.3c-0.1-0.6-0.3-1.4-0.5-2.3c-0.5-1.7-1.1-3.8-1.8-6.3
		C9.8,29.6,9,27,8.1,24.3c-1-3.3-2.1-6.6-3.2-9.8c-1.1-3.2-2-5.9-2.9-7.9c-0.5-1.1-0.9-2-1.2-2.7C0.5,3.1,0.2,2.7,0,2.6z"/>
	<path class="st0" d="M40.9,23.7c0,0.7,0,1.7-0.1,3.1c-0.2,1.4-0.3,2.9-0.5,4.5c-0.1,0.8-0.2,1.7-0.3,2.6c-0.1,0.8-0.1,1.7-0.2,2.5
		c-0.1,1.5,0,2.7,0.1,3.8c0.1,1.1,0.4,1.7,0.9,1.9c0.5,0.2,1,0.1,1.7-0.3c0.6-0.3,1.2-0.8,1.9-1.5c1.2-1.3,2.4-3,3.6-5.1
		c1.2-2.1,2.2-4,3.1-5.8c0.3-0.1,0.6-0.1,0.9-0.1c0.3,0,0.6,0.1,0.9,0.3c-0.4,1.1-1,2.4-1.7,3.8c-0.7,1.4-1.5,2.8-2.3,4.2
		c-0.6,0.9-1.2,1.8-1.8,2.6c-0.6,0.8-1.3,1.6-1.9,2.4c-1.3,1.3-2.6,2.4-4,3.1c-0.8,0.4-1.7,0.6-2.6,0.6c-0.6,0-1.1-0.1-1.6-0.2
		c-0.9-0.3-1.7-0.8-2.1-1.7c-0.5-0.8-0.8-1.7-1-2.8c-0.2-0.9-0.2-2-0.2-3c0-0.3,0-0.6,0-0.9c0-1.4,0.1-2.8,0.3-4.2
		c0.3-2.7,0.6-5.1,1-7.3c0.4-2.2,0.3-3.4-0.3-3.8c0.2-0.9,1-1.5,2.3-1.7c0.3,0,0.6,0,0.8,0c1,0,1.9,0.3,2.5,1
		c0.3,0.2,0.5,0.5,0.7,0.9C40.8,22.8,40.9,23.2,40.9,23.7z M41.8,11.8V12c0,0.5-0.3,1-0.8,1.5c-0.6,0.5-1.2,0.7-1.7,0.7h-0.1
		c-0.9,0-1.9-0.3-2.9-0.7c-1.1-0.4-1.6-1.1-1.7-2v-0.1c0-0.8,0.5-1.5,1.4-2c0.9-0.6,1.8-0.8,2.6-0.8h0.1c0.8,0,1.5,0.4,2.1,1.1
		C41.4,10.3,41.7,11.1,41.8,11.8z"/>
	<path class="st0" d="M49.4,20.2c0.4-0.3,0.8-0.5,1.3-0.6s1.1,0,1.7,0c0.8,0.2,1.6,0.5,2.4,0.9c0.7,0.5,1.1,1,1.3,1.5
		c0,0.6,0,1.6,0.1,2.8c0.2-0.3,0.7-1,1.6-2.1c0.8-1.1,1.8-2.1,3-2.9c0.6-0.5,1.3-0.8,2.1-1c0.5-0.1,0.9-0.2,1.4-0.2
		c0.3,0,0.6,0,0.9,0c1.5,0.3,2.6,1.6,3.2,3.9c0.6,2.3,0.9,4.8,1.1,7.7c0.1,2.3,0.1,4.5,0.1,6.7c0,2.2,0,4,0.1,5.5
		c0,0.8,0.1,1.5,0.2,1.9c0.1,0.5,0.3,0.8,0.5,0.8c0.7,0.3,1.7-0.5,2.9-2.2c1.3-1.8,2.5-3.7,3.7-5.8c0.8-1.4,1.5-2.8,2.2-4.1
		c0.6-1.3,1.1-2.4,1.5-3.1c0.3-0.1,0.6-0.2,1-0.2c0.3,0,0.6,0.1,0.9,0.4c-0.4,0.8-0.9,2-1.7,3.7c-0.7,1.6-1.6,3.3-2.6,5.1
		c-0.6,0.9-1.1,1.8-1.7,2.7c-0.6,0.9-1.2,1.8-1.8,2.5c-1.1,1.5-2.3,2.6-3.5,3.4c-0.8,0.6-1.6,0.9-2.4,0.9c-0.3,0-0.6,0-1-0.1
		c-1.2-0.4-2.2-1.1-2.9-2c-0.7-0.9-1.3-2-1.7-3.3c-0.4-1.3-0.7-2.8-0.8-4.3c-0.1-1.6-0.1-3.1,0-4.7c0.1-2.9,0.4-5.4,0.7-7.7
		c0.3-2.2,0.3-3.4-0.1-3.5c-0.7-0.2-1.5,0.2-2.5,1.3c-0.9,1-1.8,2.3-2.5,3.7c-0.5,0.9-0.9,1.9-1.2,2.8c-0.3,0.9-0.4,1.7-0.4,2.3
		c0,1.9,0.1,4.6,0.1,8.3c-0.4,0.8-1.1,1.4-2,1.9c-1,0.4-1.9,0.5-2.8,0.2c-0.5-0.1-0.9-0.3-1.3-0.7c-0.4-0.3-0.7-0.8-1-1.4
		c0-1.2,0-2.6,0.1-4.1c0.1-1.5,0.1-3,0.2-4.6c0.2-2.9,0.3-5.5,0.3-7.9C50.1,22.2,49.9,20.7,49.4,20.2z"/>
	<path class="st0" d="M89.4,18.5c0.8,0,1.5,0.1,2.1,0.4c0.6,0.3,1.1,0.7,1.6,1.1c0.8,0.9,1.3,2,1.4,3.4c0.1,1.3-0.3,2.7-1.1,4
		c-0.7,1.1-1.6,2.2-2.9,3.1c-0.9,0.7-2,1.2-3.3,1.7c0,0.7,0,1.4,0,2c0,1,0,2,0.1,2.9c0.2,1.8,0.5,3.3,0.9,4.5c0.4,1.3,0.9,2,1.5,2.2
		c1.2,0.5,2.6-0.1,4.1-1.8c1.5-1.6,3-3.5,4.3-5.8c0.7-1.2,1.4-2.4,2-3.6c0.6-1.2,1.2-2.3,1.6-3.3c0.3-0.1,0.6-0.1,0.9-0.1
		s0.6,0.1,0.9,0.3c-0.6,1.3-1.3,2.9-2.2,4.8c-0.9,1.9-2,3.7-3.3,5.4c-0.7,1-1.4,1.9-2.2,2.7c-0.7,0.9-1.5,1.7-2.4,2.3
		c-1.3,1-2.7,1.7-4.1,2.2c-0.7,0.2-1.4,0.3-2.1,0.3c-0.8,0-1.6-0.1-2.4-0.4c-1.2-0.4-2.3-1-3.2-1.8c-0.9-0.8-1.6-1.7-2.1-2.7
		c-0.8-1.5-1.3-3.1-1.5-4.9c-0.1-0.8-0.1-1.6-0.1-2.3c0-1.1,0.1-2.1,0.2-3.2c0.2-1.2,0.5-2.4,0.8-3.6c0.4-1.2,0.8-2.3,1.4-3.3
		c1-1.9,2.3-3.5,3.8-4.8C85.9,19.1,87.6,18.5,89.4,18.5z M88.4,29.8c0.9-0.6,1.6-1.2,2.1-1.9c1-1.3,1.5-2.6,1.5-3.9
		c0-1.3-0.4-1.9-1.1-1.9c-1.1,0.1-1.9,1-2.5,2.8c-0.5,1.6-0.9,3.4-1,5.4C87.8,30.2,88.1,30,88.4,29.8z"/>
	<path class="st0" d="M123.8,23.7c0,0.7,0,1.7-0.1,3.1c-0.2,1.4-0.3,2.9-0.5,4.5c-0.1,0.8-0.2,1.7-0.3,2.6c-0.1,0.8-0.1,1.7-0.2,2.5
		c-0.1,1.5,0,2.7,0.1,3.8c0.1,1.1,0.4,1.7,0.9,1.9c0.5,0.2,1,0.1,1.7-0.3c0.6-0.3,1.2-0.8,1.9-1.5c1.2-1.3,2.4-3,3.6-5.1
		c1.2-2.1,2.2-4,3.1-5.8c0.3-0.1,0.6-0.1,0.9-0.1c0.3,0,0.6,0.1,0.9,0.3c-0.4,1.1-1,2.4-1.7,3.8c-0.7,1.4-1.5,2.8-2.3,4.2
		c-0.6,0.9-1.2,1.8-1.8,2.6c-0.6,0.8-1.3,1.6-1.9,2.4c-1.3,1.3-2.6,2.4-4,3.1c-0.8,0.4-1.7,0.6-2.6,0.6c-0.6,0-1.1-0.1-1.6-0.2
		c-0.9-0.3-1.7-0.8-2.1-1.7c-0.5-0.8-0.8-1.7-1-2.8c-0.2-0.9-0.2-2-0.2-3c0-0.3,0-0.6,0-0.9c0-1.4,0.1-2.8,0.3-4.2
		c0.3-2.7,0.6-5.1,1-7.3c0.4-2.2,0.3-3.4-0.3-3.8c0.2-0.9,1-1.5,2.3-1.7c0.3,0,0.6,0,0.8,0c1,0,1.9,0.3,2.5,1
		c0.3,0.2,0.5,0.5,0.7,0.9C123.7,22.8,123.8,23.2,123.8,23.7z M124.6,11.8V12c0,0.5-0.3,1-0.8,1.5c-0.6,0.5-1.2,0.7-1.7,0.7H122
		c-0.9,0-1.9-0.3-2.9-0.7c-1.1-0.4-1.6-1.1-1.7-2v-0.1c0-0.8,0.5-1.5,1.4-2c0.9-0.6,1.8-0.8,2.6-0.8h0.1c0.8,0,1.5,0.4,2.1,1.1
		C124.2,10.3,124.6,11.1,124.6,11.8z"/>
	<path class="st0" d="M159.3,22.5c-0.3,0.8-0.7,1.2-1.3,1.3c-0.6,0-1.2-0.1-1.8-0.3c0.1-0.8,0-1.4-0.1-1.9c-0.2-0.5-0.4-0.9-0.7-1.2
		c-0.6-0.5-1.3-0.7-2-0.5c-0.8,0.1-1.4,0.5-1.7,1.2c-0.3,0.5-0.3,1,0,1.5c0.3,0.5,0.7,1,1.4,1.6c1.2,1,2.7,2.2,4.7,3.5
		c2,1.3,3.8,2.7,5.4,4.4c1,1.1,1.9,2.3,2.5,3.5c0.4-0.3,0.8-0.5,1.2-0.8c2.4-1.6,3.9-3.1,4.4-4.5c0.4-0.1,0.7-0.2,0.9-0.2
		c0.3,0,0.6,0,1.1,0.1c-0.6,1.5-1.7,2.9-3.4,4.3c-1.1,1-2.3,1.9-3.6,2.8c0.3,0.8,0.4,1.7,0.4,2.7c0,1.5-0.3,2.9-0.8,4.1
		c-0.5,1.2-1.1,2.2-1.9,3.1c-0.7,0.7-1.4,1.3-2.2,1.9c-0.8,0.5-1.6,0.9-2.5,1.2c-1.1,0.4-2.2,0.6-3.3,0.6c-0.4,0-0.9,0-1.3-0.1
		c-1.5-0.2-2.5-0.8-3.1-1.9c-0.5-0.7-0.6-1.4-0.3-2.1c0.3-0.7,0.8-1.5,1.5-2.3c0.8-0.8,1.8-1.6,2.9-2.5c0.5-0.4,1-0.7,1.6-1.1v0
		c0.1-0.5,0.1-1,0.1-1.4s0-0.9-0.1-1.3c-0.2-0.6-0.4-1.3-0.8-1.9c-0.4-0.6-0.8-1.3-1.4-1.9c-0.9-1.2-2-2.4-3.2-3.6
		c-1.2-1.2-2.1-2.4-2.9-3.7c-0.6-1.1-1-2.2-1.1-3.4c0-0.2,0-0.3,0-0.5c0-1,0.3-2,1-3.1c0.3-0.6,0.7-1,1.2-1.3c0.5-0.4,1-0.6,1.6-0.8
		c0.6-0.2,1.2-0.2,1.8-0.2c0.5,0,1.1,0.1,1.6,0.2c1.2,0.3,2.1,0.8,2.9,1.6c0.4,0.4,0.8,0.8,1,1.4C159.2,21.3,159.3,21.9,159.3,22.5z
		 M154.5,44.9c-0.6,0.5-1,0.9-1.2,1.3c-0.3,0.4-0.3,0.7-0.2,0.9c0.4,0.7,0.9,0.7,1.5,0.2c0.6-0.6,1.1-1.4,1.6-2.5
		c0.2-0.5,0.4-0.9,0.5-1.5C155.8,43.9,155,44.4,154.5,44.9z"/>
	<path class="st0" d="M181.3,18.5c0.8,0,1.5,0.1,2.1,0.4c0.6,0.3,1.1,0.7,1.6,1.1c0.8,0.9,1.3,2,1.4,3.4c0.1,1.3-0.3,2.7-1.1,4
		c-0.7,1.1-1.6,2.2-2.9,3.1c-0.9,0.7-2,1.2-3.3,1.7c0,0.7,0,1.4,0,2c0,1,0,2,0.1,2.9c0.2,1.8,0.5,3.3,0.9,4.5c0.4,1.3,0.9,2,1.5,2.2
		c1.2,0.5,2.6-0.1,4.1-1.8c1.5-1.6,3-3.5,4.3-5.8c0.7-1.2,1.4-2.4,2-3.6c0.6-1.2,1.2-2.3,1.6-3.3c0.3-0.1,0.6-0.1,0.9-0.1
		s0.6,0.1,0.9,0.3c-0.6,1.3-1.3,2.9-2.2,4.8c-0.9,1.9-2,3.7-3.3,5.4c-0.7,1-1.4,1.9-2.2,2.7c-0.7,0.9-1.5,1.7-2.4,2.3
		c-1.3,1-2.7,1.7-4.1,2.2c-0.7,0.2-1.4,0.3-2.1,0.3c-0.8,0-1.6-0.1-2.4-0.4c-1.2-0.4-2.3-1-3.2-1.8c-0.9-0.8-1.6-1.7-2.1-2.7
		c-0.8-1.5-1.3-3.1-1.5-4.9c-0.1-0.8-0.1-1.6-0.1-2.3c0-1.1,0.1-2.1,0.2-3.2c0.2-1.2,0.5-2.4,0.8-3.6c0.4-1.2,0.8-2.3,1.4-3.3
		c1-1.9,2.3-3.5,3.8-4.8C177.8,19.1,179.5,18.5,181.3,18.5z M180.3,29.8c0.9-0.6,1.6-1.2,2.1-1.9c1-1.3,1.5-2.6,1.5-3.9
		c0-1.3-0.4-1.9-1.1-1.9c-1.1,0.1-1.9,1-2.5,2.8c-0.5,1.6-0.9,3.4-1,5.4C179.6,30.2,180,30,180.3,29.8z"/>
	<path class="st0" d="M208.3,20.5c0-0.4,0.1-0.7,0.3-1c0.2-0.3,0.4-0.5,0.6-0.6c0.7-0.4,1.5-0.3,2.5,0.3c1,0.6,1.6,1.4,1.7,2.5
		c0,4.5-0.1,8.5-0.1,12.1c0,1.9-0.1,3.6-0.1,5.2c0.6-0.6,1.2-1.3,1.9-2c2.1-2.4,3.8-4.8,5-7.2c0.4-0.1,0.7-0.1,1-0.1
		c0.3,0,0.6,0.1,0.9,0.2c-0.7,1.5-1.5,3-2.5,4.4c-1,1.5-2.1,2.9-3.3,4.2c-1,1.3-2.1,2.5-3.1,3.6c0,0.4,0,0.8,0,1.1
		c-0.3,5.1-0.8,8.9-1.5,11.5c-0.7,2.5-1.9,4.3-3.5,5.2c-0.9,0.5-1.8,0.8-2.5,0.8c-0.6,0-1.2-0.2-1.6-0.6c-1-0.9-1.6-2.2-1.6-4
		c0-1,0.1-2,0.4-3.2c0.3-1.2,0.8-2.4,1.5-3.6c0.5-0.8,1.1-1.7,1.9-2.6c0.6-0.7,1.2-1.4,1.9-2.2c0-1.7-0.1-3.2-0.1-4.6
		c-0.1-1.5-0.1-2.6-0.1-3.3c-0.1,0.6-0.6,1.6-1.5,2.8c-0.9,1.3-1.9,2.3-3.2,3.1c-0.5,0.3-1.1,0.6-1.7,0.7c-0.6,0.2-1.1,0.2-1.7,0
		c-1.4-0.3-2.6-0.8-3.6-1.6c-0.9-0.8-1.7-1.7-2.1-2.8c-0.6-1.1-0.9-2.3-1-3.7c0-0.5,0-0.9,0-1.4c0-0.9,0.1-1.9,0.2-2.8
		c0.4-2.6,1.3-5.1,2.6-7.4c1.3-2.3,2.7-3.9,4.3-4.7c0.9-0.4,1.8-0.6,2.7-0.6c0.8,0,1.6,0.2,2.4,0.5c1.5,0.7,2.5,1.5,3,2.5V20.5z
		 M206.8,22.3c-0.5-0.1-0.9-0.1-1.3,0.2c-0.7,0.5-1.4,1.4-2.1,2.9c-0.7,1.5-1.2,3.1-1.6,4.8c-0.5,2.1-0.8,4.1-0.9,5.9
		c-0.1,1.8,0.2,2.8,0.8,3c0.7,0.2,1.6-0.5,2.6-2.1c1.1-1.6,2-3.8,2.7-6.5c0.4-1.5,0.7-3,1-4.7c0.1-0.7,0.2-1.4,0.2-2.1
		C207.7,22.9,207.3,22.5,206.8,22.3z M205.7,50.7c-0.4,0.8-0.7,1.5-0.8,2.2c-0.2,0.7-0.2,1.4-0.2,2c0,1.2,0.2,2,0.6,2.6
		c0.4,0.6,0.8,0.7,1.2,0.3c0.8-0.9,1.3-2.6,1.4-5.2c0.1-1.7,0.1-3.4,0.1-5.1C206.9,48.7,206.1,49.8,205.7,50.7z"/>
	<path class="st0" d="M247.6,30c0.4-0.2,0.7-0.3,1.1-0.2c0.4,0,0.6,0.2,0.7,0.5c-0.2,0.5-0.7,1.6-1.5,3.3c-0.8,1.8-1.7,3.6-2.8,5.6
		c-0.5,0.8-0.9,1.7-1.5,2.5c-0.5,0.8-1,1.6-1.5,2.3c-1,1.3-2,2.4-2.9,3.2c-0.7,0.6-1.5,0.9-2.1,0.9c-0.2,0-0.5,0-0.7-0.1
		c-0.9-0.2-1.6-0.6-2.1-1.1c-0.5-0.5-0.9-1.1-1.3-1.7c-0.6-1.2-0.8-2.5-0.8-3.9v-3.2c-0.2,0.4-0.6,1.1-1.2,2.2
		c-0.6,1.2-1.5,2.2-2.6,3c-0.6,0.4-1.2,0.7-1.9,1c-0.7,0.2-1.5,0.2-2.3,0c-1.1-0.3-2-0.8-2.7-1.7c-0.7-0.9-1.2-1.9-1.5-3.2
		c-0.3-1-0.5-2.1-0.6-3.3c-0.1-1.1-0.1-2.2-0.1-3.4v-0.4c0-2.3,0.2-4.7,0.4-7c0.3-2.3,0.4-4.2,0.4-5.7c0.3-0.7,0.8-1.1,1.7-1.2
		c0.3-0.1,0.6-0.1,0.9-0.1c0.6,0,1.1,0.1,1.6,0.2c0.5,0.1,0.9,0.3,1.3,0.6s0.8,0.6,1.1,1c0,1.4-0.1,2.9-0.2,4.5
		c-0.1,1.6-0.3,3.2-0.4,4.8c-0.3,3-0.5,5.7-0.6,8c-0.1,2.3,0.2,3.6,1,3.7c1,0.1,1.9-0.3,2.8-1.4c0.8-1,1.6-2.3,2.1-3.7
		c0.4-0.9,0.6-1.8,0.9-2.8c0.2-0.9,0.4-1.8,0.4-2.5c0.1-2,0.2-4.9,0.3-8.8c0.3-0.6,0.9-1,1.8-1.2c0.9-0.2,1.7-0.2,2.6,0.2
		c0.5,0.2,0.9,0.5,1.3,0.9c0.4,0.4,0.7,0.9,0.9,1.5c-0.3,0.1-0.7,1.1-1.1,3c-0.4,1.9-0.7,4.1-0.9,6.5c-0.1,1-0.2,2.1-0.3,3.2
		c-0.1,1-0.2,2-0.2,3c-0.1,1.8-0.1,3.3,0,4.6c0.1,1.2,0.3,1.9,0.6,2c0.7,0.2,1.7-0.6,2.8-2.3s2.3-3.6,3.4-5.7
		c0.9-1.7,1.7-3.3,2.3-4.8C247,31.4,247.4,30.4,247.6,30z"/>
	<path class="st0" d="M256.8,18.5c0.8,0,1.5,0.1,2.1,0.4c0.6,0.3,1.1,0.7,1.6,1.1c0.8,0.9,1.3,2,1.4,3.4c0.1,1.3-0.3,2.7-1.1,4
		c-0.7,1.1-1.6,2.2-2.9,3.1c-0.9,0.7-2,1.2-3.3,1.7c0,0.7,0,1.4,0,2c0,1,0,2,0.1,2.9c0.2,1.8,0.5,3.3,0.9,4.5c0.4,1.3,0.9,2,1.5,2.2
		c1.2,0.5,2.6-0.1,4.1-1.8c1.5-1.6,3-3.5,4.3-5.8c0.7-1.2,1.4-2.4,2-3.6c0.6-1.2,1.2-2.3,1.6-3.3c0.3-0.1,0.6-0.1,0.9-0.1
		c0.3,0,0.6,0.1,0.9,0.3c-0.6,1.3-1.3,2.9-2.2,4.8c-0.9,1.9-2,3.7-3.3,5.4c-0.7,1-1.4,1.9-2.2,2.7c-0.7,0.9-1.5,1.7-2.4,2.3
		c-1.3,1-2.7,1.7-4.1,2.2c-0.7,0.2-1.4,0.3-2.1,0.3c-0.8,0-1.6-0.1-2.4-0.4c-1.2-0.4-2.3-1-3.2-1.8c-0.9-0.8-1.6-1.7-2.1-2.7
		c-0.8-1.5-1.3-3.1-1.5-4.9c-0.1-0.8-0.1-1.6-0.1-2.3c0-1.1,0.1-2.1,0.2-3.2c0.2-1.2,0.5-2.4,0.8-3.6c0.4-1.2,0.8-2.3,1.4-3.3
		c1-1.9,2.3-3.5,3.8-4.8C253.3,19.1,255,18.5,256.8,18.5z M255.8,29.8c0.9-0.6,1.6-1.2,2.1-1.9c1-1.3,1.5-2.6,1.5-3.9
		c0-1.3-0.4-1.9-1.1-1.9c-1.1,0.1-1.9,1-2.5,2.8c-0.5,1.6-0.9,3.4-1,5.4C255.2,30.2,255.5,30,255.8,29.8z"/>
	<path class="st0" d="M275.4,23.7c0,0.7,0,1.7-0.1,3.1c-0.2,1.4-0.3,2.9-0.5,4.5c-0.1,0.8-0.2,1.7-0.3,2.6c-0.1,0.8-0.1,1.7-0.2,2.5
		c-0.1,1.5,0,2.7,0.1,3.8c0.1,1.1,0.4,1.7,0.9,1.9c0.5,0.2,1,0.1,1.7-0.3c0.6-0.3,1.2-0.8,1.9-1.5c1.2-1.3,2.4-3,3.6-5.1
		c1.2-2.1,2.2-4,3.1-5.8c0.3-0.1,0.6-0.1,0.9-0.1c0.3,0,0.6,0.1,0.9,0.3c-0.4,1.1-1,2.4-1.7,3.8c-0.7,1.4-1.5,2.8-2.3,4.2
		c-0.6,0.9-1.2,1.8-1.8,2.6c-0.6,0.8-1.3,1.6-1.9,2.4c-1.3,1.3-2.6,2.4-4,3.1c-0.8,0.4-1.7,0.6-2.6,0.6c-0.6,0-1.1-0.1-1.6-0.2
		c-0.9-0.3-1.7-0.8-2.1-1.7c-0.5-0.8-0.8-1.7-1-2.8c-0.2-0.9-0.2-2-0.2-3c0-0.3,0-0.6,0-0.9c0-1.4,0.1-2.8,0.3-4.2
		c0.3-2.7,0.7-5.1,1-7.3c0.4-2.2,0.3-3.4-0.3-3.8c0.2-0.9,1-1.5,2.3-1.7c0.3,0,0.6,0,0.8,0c1,0,1.9,0.3,2.5,1
		c0.3,0.2,0.5,0.5,0.7,0.9C275.3,22.8,275.4,23.2,275.4,23.7z M276.2,11.8V12c0,0.5-0.3,1-0.8,1.5c-0.6,0.5-1.2,0.7-1.7,0.7h-0.1
		c-0.9,0-1.9-0.3-2.9-0.7c-1.1-0.4-1.6-1.1-1.7-2v-0.1c0-0.8,0.5-1.5,1.4-2c0.9-0.6,1.8-0.8,2.6-0.8h0.1c0.8,0,1.5,0.4,2.1,1.1
		C275.8,10.3,276.2,11.1,276.2,11.8z"/>
	<path class="st0" d="M310,19.5c-0.4,0.7-1.3,2.2-2.7,4.5c-1.5,2.3-3.2,4.8-5.1,7.6l-0.7,1c0.2,0.5,0.4,1,0.6,1.6
		c0.7,2,1.4,3.8,2.1,5.4c0.6,1.5,1.2,2.3,1.7,2.5c0.9,0.3,2-0.2,3.2-1.5c1.2-1.3,2.4-3,3.6-4.9c0.6-1,1.3-2.1,1.8-3.2
		c0.6-1.1,1.1-2.1,1.6-3.1c0.3-0.1,0.6-0.1,0.9-0.1c0.3,0,0.6,0.1,0.9,0.3c-0.3,0.7-0.6,1.5-1,2.3c-0.4,0.9-0.8,1.8-1.3,2.7
		c-0.9,1.7-2,3.4-3.2,5.1c-1.2,1.8-2.5,3.2-3.8,4.4c-1.1,1-2.2,1.7-3.4,2.1c-0.7,0.3-1.3,0.4-1.9,0.4c-0.5,0-1-0.1-1.6-0.2
		c-0.7-0.2-1.4-0.6-2-1.2c-0.6-0.6-1.1-1.3-1.7-2.1c-0.6-0.9-1.1-1.9-1.6-3.1c-1,1.4-2,2.7-2.9,3.8c-1.1,1.5-1.9,2.3-2.4,2.6
		c-0.5,0.3-0.9,0.4-1.3,0.4c-0.5,0-0.9-0.2-1.2-0.6c-0.5-0.5-0.7-1-0.7-1.5c0-0.3,0.1-0.5,0.2-0.8c0.4,0.1,0.8-0.1,1.4-0.4
		c0.6-0.4,1.2-0.9,1.8-1.6c1.2-1.3,2.6-3,4-5.2l0,0c-0.2-0.8-0.4-1.6-0.6-2.4c-0.5-1.9-0.9-3.8-1.2-5.6c-0.4-1.8-0.7-3.2-0.9-4.4
		c-0.2-0.6-0.3-1.1-0.4-1.5c-0.1-0.4-0.3-0.6-0.4-0.6c-0.4-0.1-0.8,0.3-1.4,1.2c-0.6,0.9-1.1,1.9-1.6,3c-0.4,0.7-0.7,1.5-1,2.2
		l-0.7,1.7c-0.3,0.1-0.6,0.1-1,0.1c-0.3,0-0.6-0.1-0.9-0.2c0.2-0.5,0.5-1.2,0.9-2.1c0.4-0.9,0.9-1.9,1.4-2.9
		c0.7-1.5,1.6-2.9,2.6-4.2c0.9-1.2,1.8-1.8,2.7-1.8c0.1,0,0.1,0,0.2,0c1.2,0.1,2.4,1,3.5,2.5c1.1,1.6,2.1,3.4,3,5.5l0.8,1.9
		c1.1-1.7,2.2-3.4,3.3-5.1c1.2-1.9,2.3-3.5,3.3-5c0.4-0.4,0.9-0.5,1.6-0.5h0.1C309.2,18.8,309.7,19.1,310,19.5z"/>
	<path class="st0" d="M321.2,22.6c1.5-0.1,3.2-0.2,5-0.2c1.7,0,3.2,0,4.5,0c0.1,0,0.3,0,0.4,0c0.8,0,1.5,0,2.1,0c0.6,0,1,0,1.4,0.1
		c0.4,0.5,0.7,1.2,0.8,2c0,0.2,0,0.4,0,0.5c0,0.6-0.2,1.1-0.5,1.5c-0.6-0.4-1.7-0.5-3.5-0.4c-1.7,0.1-3.5,0.2-5.3,0.4
		c-1,0.1-1.9,0.2-2.8,0.3c-0.9,0.1-1.7,0.2-2.3,0.2c-1,0-1.6-0.4-1.9-1.3c-0.1-0.3-0.1-0.5-0.1-0.7c0-0.6,0.2-1.1,0.5-1.5
		c0.2-0.2,0.4-0.4,0.7-0.6C320.5,22.7,320.8,22.6,321.2,22.6z"/>
	<path class="st0" d="M337,18.8c0.2-0.7,0.4-1.2,0.8-1.6c0.3-0.4,0.7-0.6,1.2-0.7c0.2,0,0.3,0,0.5,0c0.8,0,1.7,0.4,2.7,1.2
		c1.2,0.9,1.9,2.1,2.3,3.4c0.1,1,0.3,2.5,0.5,4.5c0.1-0.5,0.5-1.2,1.2-2.3c0.7-1.1,1.5-2,2.5-2.8c0.6-0.4,1.2-0.7,1.8-1
		c0.6-0.2,1.3-0.3,2-0.2c0.6,0.1,1,0.3,1.5,0.6c0.4,0.3,0.7,0.7,1.1,1.2c0.7,1.1,1.3,2.5,1.6,4c0.3,1.6,0.4,2.7,0.4,3.4
		c0.2-0.5,0.5-1.2,0.8-1.9c0.3-0.7,0.7-1.4,1.1-2.2c0.8-1.4,1.8-2.7,3.1-3.7c1.3-1,2.9-1.3,4.8-0.9c1.1,0.3,2,0.9,2.6,1.8
		c0.7,0.9,1.1,2.1,1.4,3.5c0.3,1.4,0.4,3,0.3,4.8c0,1.8-0.1,3.5-0.3,5.3c-0.2,1.2-0.3,2.3-0.5,3.4c-0.2,1.1-0.3,2.2-0.5,3.2
		c-0.3,1.9-0.6,3.4-0.7,4.6c-0.2,1.3-0.1,2,0.1,2c0.6,0.2,1.4-0.1,2.3-1c0.9-0.9,1.9-2.1,2.9-3.6c0.5-0.8,1.1-1.6,1.6-2.5
		c0.6-0.9,1.1-1.8,1.6-2.7c1-1.7,1.9-3.4,2.6-4.9c0.8-1.6,1.3-2.8,1.7-3.6c0.3-0.1,0.6-0.1,0.9-0.1c0.3,0,0.6,0.1,1,0.3
		c-0.5,1-1.1,2.4-2,4.2c-0.8,1.8-1.8,3.6-2.8,5.6c-1.1,1.9-2.2,3.7-3.4,5.3c-1.2,1.7-2.4,3-3.7,3.9c-0.7,0.5-1.4,0.8-2,1
		c-0.3,0.1-0.7,0.1-1,0.1c-0.4,0-0.7,0-1-0.1c-1-0.3-1.7-0.9-2.3-1.8c-0.6-0.9-1-2-1.2-3.3c-0.3-1.4-0.4-2.9-0.4-4.5
		c0-1.6,0-3.3,0.1-5c0.1-2,0.2-3.9,0.3-5.8c0.1-1.9,0.1-3.3,0-4.5c-0.1-0.6-0.2-1.2-0.3-1.5c-0.2-0.4-0.4-0.6-0.7-0.7
		c-0.6-0.1-1.2,0.7-1.9,2.3c-0.7,1.7-1.4,3.5-2,5.6c-0.4,1.4-0.7,2.7-1.1,3.9c-0.3,1.3-0.6,2.3-0.7,3c-0.4,0.4-1.1,0.7-2,0.8
		c-0.9,0.1-1.7-0.3-2.2-1.4c0.2-1.2,0.3-2.4,0.3-3.6c0-1.2,0-2.3,0-3.4c-0.1-2-0.4-3.6-0.9-5c-0.5-1.3-1-2.1-1.6-2.2
		c-0.8-0.2-1.7,0.2-2.6,1c-1,0.8-1.8,1.8-2.4,3.1c-0.4,0.7-0.6,1.3-0.8,2c-0.2,0.7-0.3,1.4-0.3,2.1l0.1,10.7
		c-1.2,1.1-2.5,1.7-3.8,1.7c-1.4,0-2.5-0.6-3.4-2c0-1.3,0-2.8,0-4.5c0-1.7,0.1-3.3,0.1-5.1c0-1.1,0-2.2,0-3.3c0-1.1,0-2.1,0-3.1
		c0-1.9-0.1-3.4-0.2-4.7C337.7,19.8,337.4,19,337,18.8z"/>
	<path class="st0" d="M390.1,18.5c0.8,0,1.5,0.1,2.1,0.4c0.6,0.3,1.1,0.7,1.6,1.1c0.8,0.9,1.3,2,1.4,3.4c0.1,1.3-0.3,2.7-1.1,4
		c-0.7,1.1-1.6,2.2-2.9,3.1c-0.9,0.7-2,1.2-3.3,1.7c0,0.7,0,1.4,0,2c0,1,0,2,0.1,2.9c0.2,1.8,0.5,3.3,0.9,4.5c0.4,1.3,0.9,2,1.5,2.2
		c1.2,0.5,2.6-0.1,4.1-1.8c1.5-1.6,3-3.5,4.3-5.8c0.7-1.2,1.4-2.4,2-3.6c0.6-1.2,1.2-2.3,1.6-3.3c0.3-0.1,0.6-0.1,0.9-0.1
		c0.3,0,0.6,0.1,0.9,0.3c-0.6,1.3-1.3,2.9-2.2,4.8c-0.9,1.9-2,3.7-3.3,5.4c-0.7,1-1.4,1.9-2.2,2.7c-0.7,0.9-1.5,1.7-2.4,2.3
		c-1.3,1-2.7,1.7-4.1,2.2c-0.7,0.2-1.4,0.3-2.1,0.3c-0.8,0-1.6-0.1-2.4-0.4c-1.2-0.4-2.3-1-3.2-1.8c-0.9-0.8-1.6-1.7-2.1-2.7
		c-0.8-1.5-1.3-3.1-1.5-4.9c-0.1-0.8-0.1-1.6-0.1-2.3c0-1.1,0.1-2.1,0.2-3.2c0.2-1.2,0.5-2.4,0.8-3.6c0.4-1.2,0.8-2.3,1.4-3.3
		c1-1.9,2.3-3.5,3.8-4.8C386.6,19.1,388.3,18.5,390.1,18.5z M389.1,29.8c0.9-0.6,1.6-1.2,2.1-1.9c1-1.3,1.5-2.6,1.5-3.9
		c0-1.3-0.4-1.9-1.1-1.9c-1.1,0.1-1.9,1-2.5,2.8c-0.5,1.6-0.9,3.4-1,5.4C388.4,30.2,388.8,30,389.1,29.8z"/>
</g>
</svg>
