<?xml version="1.0" encoding="utf-8"?>
<!-- Generator: Adobe Illustrator 19.2.0, SVG Export Plug-In . SVG Version: 6.00 Build 0)  -->
<svg version="1.1" id="Capa_1" xmlns="http://www.w3.org/2000/svg" xmlns:xlink="http://www.w3.org/1999/xlink" x="0px" y="0px"
	 viewBox="0 0 430.4 112.1" style="enable-background:new 0 0 430.4 112.1;" xml:space="preserve">
<style type="text/css">
	.st0{fill:#FFFFFF;}
</style>
<g>
	<path class="st0" d="M31.9,91.2c1.3-2.7,3.6-5.2,2.1-8.6c-0.3-0.6-0.3-1.3-0.3-1.9c-0.4-3-0.9-5.9-1.2-8.9
		c-0.1-0.9,0.1-2.1,0.6-2.9c1.2-1.9,0.8-3.9-1.1-5c-0.5-0.3-1.1-1-1-1.6c0-0.6,0.6-1.2,1-1.7c0.4-0.4,1.2-0.4,1.5-0.8
		c0.7-0.8,2.1-1.6,0.8-2.9c-2.3-2.3-4.6-4.7-6.9-7c-1.9-1.9-2.7-4.2-2.3-6.9c0.2-1,0-2.2-0.4-3.2c-1.2-2.7-1-3.2,1.9-4.3
		c0.7-0.3,1.5-1,1.6-1.7c0.1-0.7-0.5-1.5-0.9-2.2c-0.3-0.4-0.9-0.6-1.2-1c-0.3-0.4-0.5-1-0.5-1.5c0-0.2,0.8-0.5,1.2-0.5
		c1.4,0.1,1.7-0.8,1.5-1.8c-0.7-2.8-1.6-5.5-4.4-7.3c-1.8-1.2-3.5-2.9-4.6-4.8c-0.4-0.7,0.9-2.5,1.5-3.8c0-0.1,0-0.1,0.1-0.2
		c0.9-1.7,1.9-3.4,2.7-5.2c0.4-0.7,0.9-1.9,0.6-2.4c-0.8-1.3-0.9-3.6-3.1-3.5c-0.8,0-1.8,0.7-2.2,1.4c-1,1.7-1.8,3.6-2.5,5.5
		c-0.8,2.3-1.5,4.6-2.2,6.9C13,13.4,11.9,13,10.8,13c-1,0-2.5,0.1-2.8,0.7c-0.5,0.9-0.6,2.5-0.1,3.4c0.4,0.7,1.9,1,2.9,1
		c2-0.1,2.9,0.5,2.7,2.6c-0.1,1.1-0.6,2.3-0.8,3.4c-0.2,1.1-0.6,2.5-0.2,3.4c1.5,3,1.1,6.1,1.1,9.2c0.1,4.7-0.3,9.3,0.7,13.9
		c1.1,0.8,1.3,2,1.1,3.3c0,0.2-0.1,0.4-0.3,0.6c0,0.7,0,1.5-0.2,2.2c-0.2,0.8-0.8,1.8-1.5,2.2c-1.6,0.8-1.6,1.7-0.9,3.2
		c0.5,0.9,0.7,2.1,0.5,3.1c-0.6,2.2-1.3,4.3-2.3,6.3c-1.5,3.1-3.6,5.9-4.4,9.6c-0.8,3.4-2.2,6.6-2.1,10.1c0.1,2.9-0.7,5-3.5,6.3
		c-1.2,0.6-1.3,1.6-0.1,2.3c1.3,0.7,2.7,1,4,1.6c3.2,1.4,6.6,2.6,9.6,4.3c3.1,1.7,5.8,4,8.7,6c0.5,0.3,1.1,0.5,1.7,0.7
		c0.2-0.7,0.6-1.3,0.6-2c0.1-1.7-0.1-3.5,0-5.2c0-0.5,0.7-1.1,1.3-1.5c1.5-1.1,3.2-1.9,4.6-3.1c0.9-0.8,0.6-1.9-0.4-2.8
		c-0.6-0.6-1.1-1.9-1-2.7C30.4,93.5,31.3,92.4,31.9,91.2z M16.5,77c-0.2,0.3-0.5,0.5-0.8,0.6c-0.4,0.2-0.8,0.4-1.2,0.6
		c-0.2-0.4-0.4-0.9-0.5-1.1c0.1-0.7,0.1-1.2,0.2-1.6c0.2-0.5,0.4-0.9,0.6-1.4c0.7,0.4,1.5,0.8,2.2,1.4C17.2,75.7,16.8,76.5,16.5,77z
		 M19.8,21.8c2.9,1,3.3,3.1,3,5.5c0,0.5-0.5,1-0.9,1.2c-0.3,0.1-1.1-0.3-1.2-0.6c-0.6-1.7-1.1-3.4-1.5-5.1
		C19.2,22.5,19.7,22.1,19.8,21.8z M24.3,61.1c-0.2,0.4-0.7,0.7-1.2,0.9c-0.6,0.3-1.1,0.6-1.7,0.9c-0.3-0.6-0.5-1.3-0.7-1.6
		c0.2-1.1,0.2-1.7,0.4-2.4c0.2-0.7,0.6-1.4,0.9-2.1c1.1,0.7,2.2,1.2,3.2,2C25.4,59.2,24.7,60.4,24.3,61.1z"/>
	<g>
		<path class="st0" d="M72.4,35.8c-2.4,0-4.2,0.5-5.6,1.6c-2.2,1.8-3.4,5-3.4,8.6c0,6.7,4.1,10.3,9.7,10.3c1.9,0,4.8-0.4,7-2
			l0.4,0.4l-0.8,1.6c-2.4,1.3-4.7,1.9-7.2,1.9c-7.1,0-11.9-4.8-11.9-12c0-6.7,4.2-12.2,12.1-12.2c1.8,0,4.8,0.3,7.3,1.2l0.1,0.3
			l-0.5,3.3h-1l-0.1-0.1C78,36.5,75.1,35.8,72.4,35.8z"/>
		<path class="st0" d="M107.7,58c-0.7,0-3.3-0.2-4-0.2H103c-0.7,0-3.3,0.2-4,0.2l-0.1-0.1l0.1-0.6l0.1-0.1c0.8,0,1.5,0,1.9-0.4
			c0.4-0.3,0.7-0.7,0.9-2c0.1-0.7,0.1-1.6,0.1-4.4v-4.1H89.3v3.4c0,3.4,0,4.1,0.1,5.2c0.1,1.3,0.5,1.7,0.9,2
			c0.4,0.3,1.2,0.4,1.9,0.4l0.1,0.1l0.1,0.6L92.4,58c-0.7,0-3.3-0.2-4-0.2h-0.7c-0.7,0-3.3,0.2-4,0.2l-0.1-0.1l0.1-0.6l0.2-0.1
			c0.8,0,1.5,0,1.9-0.4c0.4-0.3,0.8-0.7,0.9-2c0-0.7,0.1-1.6,0.1-4.4v-7.3c0-3.3,0-4.4-0.1-5.5c-0.1-1.3-0.5-1.7-0.9-2
			c-0.4-0.3-1.1-0.4-1.9-0.4l-0.2-0.1l-0.1-0.6l0.1-0.1c0.7,0,3.3,0.2,4,0.2h0.7c0.7,0,3.3-0.2,4-0.2l0.1,0.1l-0.1,0.6L92.2,35
			c-0.8,0-1.5,0-1.9,0.4c-0.4,0.3-0.8,0.7-0.9,2c-0.1,1.3-0.1,2-0.1,5.5v1.6H102v-1.6c0-3.3,0-4.4-0.1-5.5c-0.1-1.3-0.5-1.7-0.9-2
			c-0.4-0.3-1.2-0.4-1.9-0.4L99,34.9l-0.1-0.6l0.1-0.1c0.7,0,3.3,0.2,4,0.2h0.7c0.7,0,3.3-0.2,4-0.2l0.1,0.1l-0.1,0.6l-0.2,0.1
			c-0.8,0-1.5,0-1.9,0.4c-0.4,0.3-0.8,0.7-0.9,2c-0.1,1.3-0.1,2-0.1,5.5v6.6c0,3.4,0,4.1,0.1,5.2c0.1,1.3,0.5,1.7,0.9,2
			c0.4,0.3,1.1,0.4,1.9,0.4l0.2,0.1l0.1,0.6L107.7,58z"/>
		<path class="st0" d="M119.7,58c-0.7,0-3.3-0.2-4-0.2H115c-0.7,0-3.3,0.2-4,0.2l-0.1-0.1l0.1-0.6l0.2-0.1c0.6,0,1.5,0,1.9-0.3
			c0.4-0.3,0.8-0.9,0.9-2.1c0-0.7,0.1-1.6,0.1-4.4v-9.3c0-0.9,0-2.3-0.1-3.4c-0.1-1.1-0.5-1.7-0.9-2c-0.4-0.2-0.7-0.4-1.9-0.4
			l-0.2-0.1l-0.1-0.6l0.1-0.1c0.7,0,2.3,0.2,3.3,0.2h1.3c1,0,2.9,0,3.6,0c6.4,0,8.8,2.6,8.8,6.1c0,4.1-3.3,6-6,6.6
			c1.5,2.1,3.2,4.3,4.9,6.3c1.9,2.2,3,3.4,6.3,3.8l0.2,0.1l0.1,0.6l-0.1,0.1c-1,0-2.6,0.1-3.4,0.1c-2.4,0-3.5-1.1-5.8-3.9
			c-0.3-0.3-3.1-4.3-4.9-7h-2.6c0,2.6,0,6.4,0.1,7.4c0.1,1.4,0.6,1.8,0.9,2c0.4,0.2,0.7,0.4,1.9,0.4l0.1,0.1l0.1,0.6L119.7,58z
			 M119.9,45.7c4,0,5.6-2,5.6-5.1c0-2.9-2.2-4.6-5.6-4.6h-3.1c-0.1,2.7-0.2,3.7-0.2,4.8v3.5c0,1.3,0.1,1.3,1.4,1.3H119.9z"/>
		<path class="st0" d="M142.5,34.3l-0.1,0.6l-0.1,0.1c-0.8,0-1.5,0-1.9,0.4c-0.4,0.3-0.8,0.7-0.9,2c-0.1,1.3-0.1,2-0.1,5.5v6.6
			c0,3.4,0,4.1,0.1,5.2c0.1,1.3,0.5,1.7,0.9,2c0.4,0.3,1.2,0.4,1.9,0.4l0.1,0.1l0.1,0.6l-0.1,0.1c-0.7,0-3.3-0.2-4-0.2h-0.7
			c-0.7,0-3.3,0.2-4,0.2l-0.1-0.1l0.1-0.6l0.2-0.1c0.8,0,1.5,0,1.9-0.4c0.4-0.3,0.8-0.7,0.9-2c0-0.7,0.1-1.6,0.1-4.4v-7.3
			c0-3.3,0-4.4-0.1-5.5c-0.1-1.3-0.5-1.7-0.9-2c-0.4-0.3-1.1-0.4-1.9-0.4l-0.2-0.1l-0.1-0.6l0.1-0.1c0.7,0,3.3,0.2,4,0.2h0.7
			c0.7,0,3.3-0.2,4-0.2L142.5,34.3z"/>
		<path class="st0" d="M155,44.2c3.6,1.1,7.2,2.7,7.2,7.3c0,4.9-4.1,6.7-8.6,6.7c-2.9,0-5.4-0.8-7.4-1.8L146,56l0.6-3.8h0.9l0.2,0.2
			c0.3,2.9,2.4,4.2,6.1,4.2c3.7,0,5.6-1.9,5.6-4.6c0-3.4-3.2-4.3-6.2-5.3c-3.8-1.2-6.8-2.8-6.8-6.6c0-4.5,3.4-6.1,7.6-6.1
			c2.6,0,5,0.6,6.5,1.2l0.1,0.4l-0.5,3.2h-1l-0.2-0.2c-0.2-2.5-3.2-2.9-5-2.9c-3.1,0-5,1.4-5,3.9C149,42.2,150.9,42.9,155,44.2z"/>
		<path class="st0" d="M179.3,58c-0.7,0-3.2-0.2-3.9-0.2h-2c-0.7,0-3.2,0.2-3.8,0.2l-0.1-0.1l0.1-0.6l0.2-0.1c0.8,0,1.9,0,2.3-0.4
			c0.4-0.3,0.9-0.7,1-2c0.1-0.7,0.1-1.6,0.1-4.4v-7.3c0-3.1-0.1-5.7-0.1-6.9h-0.4c-4.8,0-5.9,0.1-6.3,0.4c-0.5,0.3-0.9,1-1,1.9
			l-0.1,0.1h-0.8l0.3-4.1l0.1-0.3l0.2-0.1c0.8,0.3,5.8,0.4,7.1,0.4h4.5c1.3,0,6.3-0.1,7.1-0.4l0.2,0.1l0.1,0.3l0.3,4.1h-0.9
			l-0.1-0.1c-0.1-0.9-0.4-1.6-1-1.9c-0.4-0.2-1.5-0.4-6.3-0.4h-0.4c0,1.4-0.1,3.6-0.1,6.9v6.6c0,3.4,0,4.1,0.1,5.2
			c0.1,1.3,0.6,1.7,1,2c0.4,0.3,1.5,0.4,2.3,0.4l0.2,0.1l0.1,0.6L179.3,58z"/>
		<path class="st0" d="M195.3,34.3l-0.1,0.6l-0.1,0.1c-0.8,0-1.5,0-1.9,0.4c-0.4,0.3-0.8,0.7-0.9,2c-0.1,1.3-0.1,2-0.1,5.5v6.6
			c0,3.4,0,4.1,0.1,5.2c0.1,1.3,0.5,1.7,0.9,2c0.4,0.3,1.2,0.4,1.9,0.4l0.1,0.1l0.1,0.6l-0.1,0.1c-0.7,0-3.3-0.2-4-0.2h-0.7
			c-0.7,0-3.3,0.2-4,0.2l-0.1-0.1l0.1-0.6l0.2-0.1c0.8,0,1.5,0,1.9-0.4c0.4-0.3,0.8-0.7,0.9-2c0-0.7,0.1-1.6,0.1-4.4v-7.3
			c0-3.3,0-4.4-0.1-5.5c-0.1-1.3-0.5-1.7-0.9-2c-0.4-0.3-1.1-0.4-1.9-0.4l-0.2-0.1l-0.1-0.6l0.1-0.1c0.7,0,3.3,0.2,4,0.2h0.7
			c0.7,0,3.3-0.2,4-0.2L195.3,34.3z"/>
		<path class="st0" d="M200.7,35.4c-0.4-0.3-1.1-0.4-1.9-0.4l-0.2-0.1l-0.1-0.6l0.1-0.1c0.7,0,3.3,0.2,4,0.2h6.2
			c1.3,0,5.6-0.1,6-0.1l0.2,0.4l-0.1,3.9H214l-0.1-0.1c-0.1-2.2-0.3-2.3-6-2.3h-3.4l-0.1,1.4c-0.1,1.3-0.1,2-0.1,5.5v1.8
			c2.9-0.1,5.9,0.1,6.4-0.6c0.4-0.4,0.7-0.7,0.7-1.4l0.2-0.2l0.6-0.1l0.1,0.1c-0.1,1.1-0.2,1.8-0.2,2.8c0,1.1,0.1,2,0.2,3.2
			l-0.1,0.1l-0.6-0.1l-0.1-0.1c0-0.8-0.3-1.4-0.7-1.9c-0.6-0.6-3.4-0.5-6.4-0.5v3.5c0,3.4,0,4.1,0.1,5.2c0.1,1.3,0.6,1.7,1,2
			c0.4,0.3,1.4,0.4,2.2,0.4l0.2,0.1l0.1,0.6l-0.1,0.1c-0.7,0-3.7-0.2-4.4-0.2h-0.7c-0.7,0-3.3,0.2-4,0.2l-0.1-0.1l0.1-0.6l0.2-0.1
			c0.8,0,1.5,0,1.9-0.4c0.4-0.3,0.8-0.7,0.9-2c0-0.7,0.1-1.6,0.1-4.4v-7.3c0-3.3,0-4.4-0.1-5.5C201.4,36.1,201,35.7,200.7,35.4z"/>
		<path class="st0" d="M226.3,34.3l-0.1,0.6l-0.1,0.1c-0.8,0-1.5,0-1.9,0.4c-0.4,0.3-0.8,0.7-0.9,2c-0.1,1.3-0.1,2-0.1,5.5v6.6
			c0,3.4,0,4.1,0.1,5.2c0.1,1.3,0.5,1.7,0.9,2c0.4,0.3,1.2,0.4,1.9,0.4l0.1,0.1l0.1,0.6l-0.1,0.1c-0.7,0-3.3-0.2-4-0.2h-0.7
			c-0.7,0-3.3,0.2-4,0.2l-0.1-0.1l0.1-0.6l0.2-0.1c0.8,0,1.5,0,1.9-0.4c0.4-0.3,0.8-0.7,0.9-2c0-0.7,0.1-1.6,0.1-4.4v-7.3
			c0-3.3,0-4.4-0.1-5.5c-0.1-1.3-0.5-1.7-0.9-2c-0.4-0.3-1.1-0.4-1.9-0.4l-0.2-0.1l-0.1-0.6l0.1-0.1c0.7,0,3.3,0.2,4,0.2h0.7
			c0.7,0,3.3-0.2,4-0.2L226.3,34.3z"/>
		<path class="st0" d="M231.6,35.4c-0.4-0.2-0.7-0.4-1.9-0.4l-0.2-0.1l-0.1-0.6l0.1-0.1c0.7,0,2.7,0.2,3.7,0.2h2
			c1.3,0,4-0.1,5.2-0.1c7.5,0,11.8,5.4,11.8,11.8c0,6.3-4.1,11.8-12.1,11.8c-0.9,0-3.7-0.1-4.8-0.1h-1.9c-0.7,0-3.3,0.2-4,0.2
			l-0.1-0.1l0.1-0.6l0.2-0.1c0.6,0,1.5,0,1.9-0.3c0.4-0.3,0.8-0.9,0.9-2.1c0-0.7,0.1-1.6,0.1-4.4v-7.3c0-0.9,0-4.3-0.1-5.5
			C232.4,36.3,232.1,35.7,231.6,35.4z M240.5,56.1c5.7,0,8.9-4.4,8.9-10c0-5.8-3.4-10-9.1-10h-5c-0.1,2.7-0.2,3.4-0.2,6.9v6.6
			c0,2.9,0,4.3,0.1,5.2c0.1,1.3,0.5,1.4,1.8,1.4H240.5z"/>
		<path class="st0" d="M265.8,34.3c1.3,0,5.6-0.1,6-0.1l0.2,0.4l-0.1,3.9H271l-0.1-0.1c-0.1-2.2-0.3-2.3-6-2.3h-3.4l-0.1,1.4
			c-0.1,1.3-0.1,2-0.1,5.5v1.8c2.9-0.1,5.9,0.1,6.4-0.6c0.4-0.4,0.7-0.7,0.7-1.4l0.2-0.2l0.6-0.1l0.1,0.1c-0.1,1.1-0.2,1.8-0.2,2.8
			c0,1.1,0.1,2,0.2,3.2l-0.1,0.1l-0.6-0.1l-0.1-0.1c0-0.8-0.3-1.4-0.7-1.9c-0.6-0.6-3.4-0.5-6.4-0.5v3.5c0,3.4,0,4.1,0.2,5.9
			c0,0.5,0.2,0.7,0.7,0.7h3.1c5.8,0,6.1-0.3,6.7-2.9L272,53h0.9l-0.6,4.6l-0.3,0.4c-0.4,0-3.9-0.1-5.2-0.1h-7.2
			c-0.7,0-3.3,0.2-4,0.2l-0.1-0.1l0.1-0.6l0.2-0.1c0.8,0,1.5,0,1.9-0.4c0.4-0.3,0.8-0.7,0.9-2c0-0.7,0.1-1.6,0.1-4.4v-7.3
			c0-3.3,0-4.4-0.1-5.5c-0.1-1.3-0.5-1.7-0.9-2c-0.4-0.3-1.1-0.4-1.9-0.4l-0.2-0.1l-0.1-0.6l0.1-0.1c0.7,0,3.3,0.2,4.4,0.2H265.8z"
			/>
		<path class="st0" d="M277.8,35.4c-0.4-0.3-1.1-0.4-1.9-0.4l-0.2-0.1l-0.1-0.6l0.1-0.1c0.7,0,3.3,0.2,4,0.2h0.7
			c0.7,0,3.3-0.2,4-0.2l0.1,0.1l-0.1,0.6l-0.1,0.1c-0.8,0-1.5,0-1.9,0.4c-0.4,0.3-0.8,0.7-0.9,2c-0.1,1.3-0.1,2-0.1,5.5v6.6
			c0,3.4,0.1,4.1,0.1,5.2l0.1,0.7c0,0.5,0.2,0.7,0.7,0.7h3.1c5.8,0,5.1-0.3,5.8-2.9l0.1-0.1h0.9l-0.6,4.6l-0.3,0.4
			c-0.4,0-2.9-0.1-4.2-0.1h-7.2c-0.7,0-3.3,0.2-4,0.2l-0.1-0.1l0.1-0.6l0.2-0.1c0.8,0,1.5,0,1.9-0.4c0.4-0.3,0.8-0.7,0.9-2
			c0-0.7,0.1-1.6,0.1-4.4v-7.3c0-3.3,0-4.4-0.1-5.5C278.6,36.1,278.2,35.7,277.8,35.4z"/>
		<path class="st0" d="M304.4,34.3c1.3,0,5.6-0.1,6-0.1l0.2,0.4l-0.1,3.9h-0.9l-0.1-0.1c-0.1-2.2-0.3-2.3-6-2.3H300l-0.1,1.4
			c-0.1,1.3-0.1,2-0.1,5.5v1.8c2.9-0.1,5.9,0.1,6.4-0.6c0.4-0.4,0.7-0.7,0.7-1.4l0.2-0.2l0.6-0.1l0.1,0.1c-0.1,1.1-0.2,1.8-0.2,2.8
			c0,1.1,0.1,2,0.2,3.2l-0.1,0.1l-0.6-0.1l-0.1-0.1c0-0.8-0.3-1.4-0.7-1.9c-0.6-0.6-3.4-0.5-6.4-0.5v3.5c0,3.4,0,4.1,0.2,5.9
			c0,0.5,0.2,0.7,0.7,0.7h3.1c5.8,0,6.1-0.3,6.7-2.9l0.1-0.1h0.9l-0.6,4.6l-0.3,0.4c-0.4,0-3.9-0.1-5.2-0.1h-7.2
			c-0.7,0-3.3,0.2-4,0.2l-0.1-0.1l0.1-0.6l0.2-0.1c0.8,0,1.5,0,1.9-0.4c0.4-0.3,0.8-0.7,0.9-2c0-0.7,0.1-1.6,0.1-4.4v-7.3
			c0-3.3,0-4.4-0.1-5.5c-0.1-1.3-0.5-1.7-0.9-2c-0.4-0.3-1.1-0.4-1.9-0.4l-0.2-0.1l-0.1-0.6l0.1-0.1c0.7,0,3.3,0.2,4.4,0.2H304.4z"
			/>
		<path class="st0" d="M323.6,44.2c3.6,1.1,7.2,2.7,7.2,7.3c0,4.9-4.1,6.7-8.6,6.7c-2.9,0-5.4-0.8-7.4-1.8l-0.1-0.5l0.6-3.8h0.9
			l0.2,0.2c0.3,2.9,2.4,4.2,6.1,4.2c3.7,0,5.6-1.9,5.6-4.6c0-3.4-3.2-4.3-6.2-5.3c-3.8-1.2-6.8-2.8-6.8-6.6c0-4.5,3.4-6.1,7.6-6.1
			c2.6,0,5,0.6,6.5,1.2l0.1,0.4l-0.5,3.2h-1l-0.2-0.2c-0.2-2.5-3.2-2.9-5-2.9c-3.1,0-5,1.4-5,3.9C317.6,42.2,319.5,42.9,323.6,44.2z
			"/>
		<path class="st0" d="M345.3,35.4c-0.4-0.3-1.1-0.4-1.9-0.4l-0.2-0.1l-0.1-0.6l0.1-0.1c0.7,0,3.3,0.2,4,0.2h0.7
			c0.7,0,3.3-0.2,4-0.2l0.1,0.1l-0.1,0.6l-0.1,0.1c-0.8,0-1.5,0-1.9,0.4c-0.4,0.3-0.8,0.7-0.9,2c-0.1,1.3-0.1,2-0.1,5.5v6.6
			c0,3.4,0.1,4.1,0.1,5.2l0.1,0.7c0,0.5,0.2,0.7,0.7,0.7h3.1c5.8,0,5.1-0.3,5.8-2.9l0.1-0.1h0.9l-0.6,4.6l-0.3,0.4
			c-0.4,0-2.9-0.1-4.2-0.1h-7.2c-0.7,0-3.3,0.2-4,0.2l-0.1-0.1l0.1-0.6l0.2-0.1c0.8,0,1.5,0,1.9-0.4c0.4-0.3,0.8-0.7,0.9-2
			c0-0.7,0.1-1.6,0.1-4.4v-7.3c0-3.3,0-4.4-0.1-5.5C346,36.1,345.6,35.7,345.3,35.4z"/>
		<path class="st0" d="M373.3,33.9l5.9,16.3c1,2.8,1.4,3.7,1.7,4.4c1.1,2.4,2.2,2.4,3.4,2.4l0.2,0.1l0.1,0.6l-0.1,0.1
			c-0.7,0-2.9-0.2-3.6-0.2h-1.2c-0.7,0-3.4,0.2-4.1,0.2l-0.1-0.1l0.1-0.6l0.1-0.1c1.4,0,2.2-0.1,2.2-1.5c0-1.1-0.9-3.1-1.9-6.1
			l-0.6-1.7h-8l-0.6,1.7c-1.1,3-1.9,5-1.9,6.1c0,1.4,0.8,1.5,2.2,1.5l0.2,0.1l0.1,0.6l-0.1,0.1c-0.7,0-3.2-0.2-3.8-0.2h-0.7
			c-0.7,0-2.9,0.2-3.6,0.2l0-0.1l0.1-0.6l0.2-0.1c1.2,0,2.3,0,3.4-2.4c0.4-0.7,0.7-1.6,4.7-11.7c1.3-3.3,2.8-6.9,3.2-7.9l2.1-1.1
			H373.3z M368.2,46.2h6.9l-3.4-9.2L368.2,46.2z"/>
		<path class="st0" d="M394.6,34.3l-0.1,0.6l-0.1,0.1c-0.8,0-1.5,0-1.9,0.4c-0.4,0.3-0.8,0.7-0.9,2c-0.1,1.3-0.1,2-0.1,5.5v6.6
			c0,3.4,0,4.1,0.1,5.2c0.1,1.3,0.5,1.7,0.9,2c0.4,0.3,1.2,0.4,1.9,0.4l0.1,0.1l0.1,0.6l-0.1,0.1c-0.7,0-3.3-0.2-4-0.2h-0.7
			c-0.7,0-3.3,0.2-4,0.2l-0.1-0.1l0.1-0.6l0.2-0.1c0.8,0,1.5,0,1.9-0.4c0.4-0.3,0.8-0.7,0.9-2c0-0.7,0.1-1.6,0.1-4.4v-7.3
			c0-3.3,0-4.4-0.1-5.5c-0.1-1.3-0.5-1.7-0.9-2c-0.4-0.3-1.1-0.4-1.9-0.4l-0.2-0.1l-0.1-0.6l0.1-0.1c0.7,0,3.3,0.2,4,0.2h0.7
			c0.7,0,3.3-0.2,4-0.2L394.6,34.3z"/>
		<path class="st0" d="M409.7,35.8c-2.4,0-4.2,0.5-5.6,1.6c-2.2,1.8-3.4,5-3.4,8.6c0,6.7,4.1,10.3,9.7,10.3c1.9,0,4.8-0.4,7-2
			l0.4,0.4l-0.8,1.6c-2.4,1.3-4.7,1.9-7.2,1.9c-7.1,0-11.9-4.8-11.9-12c0-6.7,4.2-12.2,12.1-12.2c1.8,0,4.8,0.3,7.3,1.2l0.1,0.3
			l-0.5,3.3h-1l-0.1-0.1C415.4,36.5,412.4,35.8,409.7,35.8z"/>
		<path class="st0" d="M429.8,34.3l-0.1,0.6l-0.1,0.1c-0.8,0-1.5,0-1.9,0.4c-0.4,0.3-0.8,0.7-0.9,2c-0.1,1.3-0.1,2-0.1,5.5v6.6
			c0,3.4,0,4.1,0.1,5.2c0.1,1.3,0.5,1.7,0.9,2c0.4,0.3,1.2,0.4,1.9,0.4l0.1,0.1l0.1,0.6l-0.1,0.1c-0.7,0-3.3-0.2-4-0.2H425
			c-0.7,0-3.3,0.2-4,0.2l-0.1-0.1l0.1-0.6l0.2-0.1c0.8,0,1.5,0,1.9-0.4c0.4-0.3,0.8-0.7,0.9-2c0-0.7,0.1-1.6,0.1-4.4v-7.3
			c0-3.3,0-4.4-0.1-5.5c-0.1-1.3-0.5-1.7-0.9-2c-0.4-0.3-1.1-0.4-1.9-0.4l-0.2-0.1l-0.1-0.6l0.1-0.1c0.7,0,3.3,0.2,4,0.2h0.7
			c0.7,0,3.3-0.2,4-0.2L429.8,34.3z"/>
	</g>
	<g>
		<path class="st0" d="M73.7,79.9c-0.3,0-1.5-0.1-1.8-0.1h-0.3c-0.3,0-1.5,0.1-1.8,0.1l0-0.1l0-0.3l0.1-0.1c0.3,0,0.7,0,0.9-0.2
			c0.1-0.1,0.3-0.3,0.3-0.9c0-0.3,0-0.7-0.1-2c-0.3-4.5-0.4-5.1-0.4-5.5c-0.5,1.2-2.6,6.5-3.5,8.7h-0.7L63,70.9
			c0,0.4-0.1,0.9-0.2,2.2l-0.2,3c-0.1,1.5-0.1,1.8-0.1,2.3c0,0.6,0.2,0.8,0.3,0.9s0.4,0.2,0.7,0.2l0.1,0.1l0,0.3l0,0.1
			c-0.3,0-1.2-0.1-1.6-0.1h-0.3c-0.3,0-1.5,0.1-1.8,0.1l0-0.1l0-0.3l0.1-0.1c0.3,0,0.6,0,0.9-0.2c0.2-0.1,0.4-0.3,0.5-0.9
			c0-0.3,0.1-0.7,0.2-2l0.2-3.3c0.1-1.5,0.1-2,0.1-2.5c0-0.6-0.2-0.8-0.4-0.9c-0.2-0.1-0.5-0.2-0.9-0.2l-0.1-0.1l0-0.3l0-0.1
			c0.3,0,1.5,0.1,1.8,0.1H63c0.2,0,0.5,0,0.6-0.1l0.1,0c0,0.5,0.6,2,1.1,3.3l1.1,3c0.4,1,0.7,1.7,0.9,2.2c0.2-0.3,2.9-6.7,3.2-8.5
			l0.1-0.1c0.2,0,0.4,0.1,0.6,0.1h0.6c0.3,0,1.5-0.1,1.8-0.1l0,0.1l0,0.3l-0.1,0.1c-0.3,0-0.7,0-0.9,0.2c-0.2,0.1-0.4,0.3-0.4,0.9
			c0,0.6,0,0.9,0.1,2.5l0.2,3c0.1,1.5,0.1,1.8,0.2,2.3c0.1,0.6,0.3,0.8,0.5,0.9c0.2,0.1,0.5,0.2,0.9,0.2l0.1,0.1L73.7,79.9
			L73.7,79.9z"/>
		<path class="st0" d="M85.4,74.5c0,2.8-1.9,5.5-5.4,5.5c-3.4,0-5.2-2.5-5.2-5.4c0-3.1,2-5.6,5.3-5.6C83.5,69,85.4,71.5,85.4,74.5z
			 M84.1,74.5c0-2.6-1.6-4.6-4.1-4.6c-2.6,0-3.9,2-3.9,4.6c0,2.9,1.7,4.6,4,4.6C82.7,79.1,84.1,77,84.1,74.5z"/>
		<path class="st0" d="M90.9,80l-2.6-7.3c-0.5-1.3-0.6-1.7-0.8-2c-0.5-1.1-1-1.1-1.6-1.1l-0.1-0.1l0-0.3l0-0.1
			c0.3,0,1.3,0.1,1.6,0.1H88c0.3,0,1.5-0.1,1.8-0.1l0,0.1l0,0.3l-0.1,0.1c-0.6,0-1,0.1-1,0.7c0,0.5,0.4,1.4,0.9,2.7l1.1,3
			c0.4,1.1,0.7,2,1,2.7c0.2-0.6,0.6-1.5,1-2.7l1.1-3c0.5-1.3,0.9-2.2,0.9-2.7c0-0.6-0.4-0.7-1-0.7l-0.1-0.1l0-0.3l0-0.1
			c0.3,0,1.4,0.1,1.7,0.1h0.3c0.3,0,1.3-0.1,1.6-0.1l0,0.1l0,0.3l-0.1,0.1c-0.5,0-1,0-1.6,1.1c-0.1,0.3-0.3,0.7-2.1,5.3
			c-0.6,1.5-1.4,3.4-1.5,3.9L91.1,80H90.9z"/>
		<path class="st0" d="M101.6,69.2l0,0.3l-0.1,0.1c-0.3,0-0.7,0-0.9,0.2c-0.2,0.1-0.4,0.3-0.4,0.9c0,0.6,0,0.9,0,2.5v3
			c0,1.5,0,1.8,0,2.3c0,0.6,0.2,0.8,0.4,0.9c0.2,0.1,0.5,0.2,0.9,0.2l0.1,0.1l0,0.3l0,0.1c-0.3,0-1.5-0.1-1.8-0.1h-0.3
			c-0.3,0-1.5,0.1-1.8,0.1l0-0.1l0-0.3l0.1-0.1c0.3,0,0.7,0,0.9-0.2c0.2-0.1,0.4-0.3,0.4-0.9c0-0.3,0-0.7,0-2v-3.3c0-1.5,0-2,0-2.5
			c0-0.6-0.2-0.8-0.4-0.9c-0.2-0.1-0.5-0.2-0.9-0.2l-0.1-0.1l0-0.3l0-0.1c0.3,0,1.5,0.1,1.8,0.1h0.3C100,69.2,101.2,69.1,101.6,69.2
			L101.6,69.2z"/>
		<path class="st0" d="M116.4,79.9c-0.3,0-1.5-0.1-1.8-0.1h-0.3c-0.3,0-1.5,0.1-1.8,0.1l0-0.1l0-0.3l0.1-0.1c0.3,0,0.7,0,0.9-0.2
			c0.1-0.1,0.3-0.3,0.3-0.9c0-0.3,0-0.7-0.1-2c-0.3-4.5-0.4-5.1-0.4-5.5c-0.5,1.2-2.6,6.5-3.5,8.7h-0.7l-3.3-8.7
			c0,0.4-0.1,0.9-0.2,2.2l-0.2,3c-0.1,1.5-0.1,1.8-0.1,2.3c0,0.6,0.2,0.8,0.3,0.9s0.4,0.2,0.7,0.2l0.1,0.1l0,0.3l0,0.1
			c-0.3,0-1.2-0.1-1.6-0.1h-0.3c-0.3,0-1.5,0.1-1.8,0.1l0-0.1l0-0.3l0.1-0.1c0.3,0,0.6,0,0.9-0.2c0.2-0.1,0.4-0.3,0.5-0.9
			c0-0.3,0.1-0.7,0.2-2l0.2-3.3c0.1-1.5,0.1-2,0.1-2.5c0-0.6-0.2-0.8-0.4-0.9c-0.2-0.1-0.5-0.2-0.9-0.2l-0.1-0.1l0-0.3l0-0.1
			c0.3,0,1.5,0.1,1.8,0.1h0.6c0.2,0,0.4,0,0.6-0.1l0.1,0c0,0.5,0.6,2,1.1,3.3l1.1,3c0.4,1,0.7,1.7,0.9,2.2c0.2-0.3,2.9-6.7,3.2-8.5
			l0.1-0.1c0.2,0,0.4,0.1,0.5,0.1h0.6c0.3,0,1.5-0.1,1.8-0.1l0,0.1l0,0.3l-0.1,0.1c-0.3,0-0.7,0-0.9,0.2c-0.2,0.1-0.4,0.3-0.4,0.9
			c0,0.6,0,0.9,0.1,2.5l0.2,3c0.1,1.5,0.1,1.8,0.2,2.3c0.1,0.6,0.3,0.8,0.5,0.9c0.2,0.1,0.5,0.2,0.9,0.2l0.1,0.1L116.4,79.9
			L116.4,79.9z"/>
		<path class="st0" d="M121.4,69.2l0,0.3l-0.1,0.1c-0.3,0-0.7,0-0.9,0.2c-0.2,0.1-0.4,0.3-0.4,0.9c0,0.6,0,0.9,0,2.5v3
			c0,1.5,0,1.8,0,2.3c0,0.6,0.2,0.8,0.4,0.9c0.2,0.1,0.5,0.2,0.9,0.2l0.1,0.1l0,0.3l0,0.1c-0.3,0-1.5-0.1-1.8-0.1h-0.3
			c-0.3,0-1.5,0.1-1.8,0.1l0-0.1l0-0.3l0.1-0.1c0.3,0,0.7,0,0.9-0.2c0.2-0.1,0.4-0.3,0.4-0.9c0-0.3,0-0.7,0-2v-3.3c0-1.5,0-2,0-2.5
			c0-0.6-0.2-0.8-0.4-0.9c-0.2-0.1-0.5-0.2-0.9-0.2l-0.1-0.1l0-0.3l0-0.1c0.3,0,1.5,0.1,1.8,0.1h0.3
			C119.9,69.2,121.1,69.1,121.4,69.2L121.4,69.2z"/>
		<path class="st0" d="M127.5,69.2c0.6,0,2.5-0.1,2.7-0.1l0.1,0.2l-0.1,1.8h-0.4l-0.1-0.1c-0.1-1-0.1-1-2.7-1h-1.6l0,0.6
			c0,0.6,0,0.9,0,2.5v0.8c1.3,0,2.7,0,2.9-0.3c0.2-0.2,0.3-0.3,0.3-0.6l0.1-0.1l0.3,0l0.1,0c0,0.5-0.1,0.8-0.1,1.3
			c0,0.5,0,0.9,0.1,1.4l-0.1,0l-0.3,0l-0.1,0c0-0.3-0.1-0.6-0.3-0.8c-0.3-0.3-1.5-0.2-2.9-0.2V76c0,1.5,0,1.8,0.1,2.7
			c0,0.2,0.1,0.3,0.3,0.3h1.4c2.6,0,2.7-0.1,3-1.3l0.1-0.1h0.4l-0.3,2.1l-0.1,0.2c-0.2,0-1.8-0.1-2.3-0.1h-3.3
			c-0.3,0-1.5,0.1-1.8,0.1l0-0.1l0-0.3l0.1-0.1c0.3,0,0.7,0,0.9-0.2c0.2-0.1,0.4-0.3,0.4-0.9c0-0.3,0-0.7,0-2v-3.3c0-1.5,0-2,0-2.5
			c0-0.6-0.2-0.8-0.4-0.9c-0.2-0.1-0.5-0.2-0.9-0.2l-0.1-0.1l0-0.3l0-0.1c0.3,0,1.5,0.1,2,0.1H127.5z"/>
		<path class="st0" d="M142.7,69.2l0,0.3l-0.1,0.1c-0.3,0-0.7,0-0.9,0.2c-0.2,0.1-0.3,0.3-0.4,0.9c0,0.6,0,0.9,0,2.5v2.8
			c0,2.4,0,2.9,0.1,3.9l-0.1,0.1l-0.9-0.1l-0.2-0.2l-5.8-8.6c0,0.4,0,0.8,0,2v3c0,0.5,0,1.8,0,2.3c0,0.5,0.2,0.8,0.4,0.9
			c0.2,0.1,0.4,0.2,0.9,0.2l0.1,0.1l0,0.3l0,0.1c-0.3,0-1.4-0.1-1.7-0.1h-0.3c-0.3,0-1.5,0.1-1.8,0.1l0-0.1l0-0.3l0.1-0.1
			c0.4,0,0.6,0,0.9-0.2c0.1-0.1,0.3-0.3,0.4-0.9c0-0.3,0-0.7,0-2v-3.3c0-1.5,0-2,0-2.5c0-0.5-0.2-0.8-0.4-0.9
			c-0.2-0.1-0.5-0.2-0.9-0.2l-0.1-0.1l0-0.3l0-0.1c0.3,0,1.2,0.1,1.6,0.1h0.6c0.2,0,0.5,0,0.7-0.1l0.1,0c0.2,0.6,1.2,2.2,2.1,3.6
			c1.6,2.6,3,4.4,3.3,4.8c0-0.3,0-0.4,0-1.3v-3.3c0-1.5,0-2,0-2.5c0-0.6-0.2-0.8-0.4-0.9c-0.2-0.1-0.5-0.2-0.9-0.2l-0.1-0.1l0-0.3
			l0-0.1c0.3,0,1.2,0.1,1.5,0.1h0.8C141.4,69.2,142.3,69.1,142.7,69.2L142.7,69.2z"/>
		<path class="st0" d="M150.2,79.9c-0.3,0-1.4-0.1-1.7-0.1h-0.9c-0.3,0-1.4,0.1-1.7,0.1l0-0.1l0-0.3l0.1-0.1c0.3,0,0.9,0,1-0.2
			c0.2-0.1,0.4-0.3,0.5-0.9c0-0.3,0-0.7,0-2v-3.3c0-1.4,0-2.6,0-3.1h-0.2c-2.2,0-2.7,0.1-2.8,0.2c-0.2,0.1-0.4,0.4-0.4,0.8l-0.1,0.1
			h-0.4l0.1-1.8l0.1-0.1l0.1,0c0.4,0.1,2.6,0.2,3.2,0.2h2c0.6,0,2.9,0,3.2-0.2l0.1,0l0.1,0.1l0.1,1.8h-0.4l-0.1-0.1
			c0-0.4-0.2-0.7-0.4-0.8c-0.2-0.1-0.7-0.2-2.8-0.2h-0.2c0,0.6,0,1.6,0,3.1v3c0,1.5,0,1.8,0,2.3c0,0.6,0.3,0.8,0.5,0.9
			s0.7,0.2,1,0.2l0.1,0.1L150.2,79.9L150.2,79.9z"/>
		<path class="st0" d="M164.2,74.5c0,2.8-1.9,5.5-5.4,5.5c-3.4,0-5.2-2.5-5.2-5.4c0-3.1,2-5.6,5.3-5.6
			C162.2,69,164.2,71.5,164.2,74.5z M162.9,74.5c0-2.6-1.6-4.6-4.1-4.6c-2.6,0-3.9,2-3.9,4.6c0,2.9,1.7,4.6,4,4.6
			C161.4,79.1,162.9,77,162.9,74.5z"/>
		<path class="st0" d="M173.8,79.9c-0.3,0-1.5-0.1-1.8-0.1h-0.3c-0.3,0-1.5,0.1-1.8,0.1l0-0.1l0-0.3l0.1-0.1c0.3,0,0.7,0,0.9-0.1
			c0.2-0.1,0.3-0.4,0.4-0.9c0-0.3,0-0.7,0-2v-4.2c0-0.4,0-1,0-1.6c0-0.6-0.2-0.8-0.4-0.9c-0.2-0.1-0.3-0.2-0.9-0.2l-0.1-0.1l0-0.3
			l0-0.1c0.3,0,1,0.1,1.5,0.1h0.6c0.5,0,1.3,0,1.6,0c2.9,0,4,1.2,4,2.9c0,2.5-2.3,3.1-4.2,3.1h-0.9c0,1.2,0,2.7,0,3.2
			c0,0.6,0.3,0.8,0.4,0.9c0.2,0.1,0.3,0.2,0.9,0.2l0.1,0.1L173.8,79.9L173.8,79.9z M173.9,74.5c1.8,0,2.5-0.9,2.5-2.3
			c0-1.5-1-2.2-2.5-2.2h-1.4c-0.1,1.2-0.1,1.7-0.1,2.2v1.8c0,0.6,0.1,0.6,0.6,0.6H173.9z"/>
		<path class="st0" d="M183.2,69l2.7,7.3c0.5,1.3,0.6,1.7,0.8,2c0.5,1.1,1,1.1,1.6,1.1l0.1,0.1l0,0.3l0,0.1c-0.3,0-1.3-0.1-1.6-0.1
			h-0.5c-0.3,0-1.5,0.1-1.8,0.1l0-0.1l0-0.3l0.1-0.1c0.6,0,1-0.1,1-0.7c0-0.5-0.4-1.4-0.9-2.7l-0.3-0.8h-3.6l-0.3,0.8
			c-0.5,1.3-0.9,2.2-0.9,2.7c0,0.6,0.4,0.7,1,0.7l0.1,0.1l0,0.3l0,0.1c-0.3,0-1.4-0.1-1.7-0.1h-0.3c-0.3,0-1.3,0.1-1.6,0.1l0-0.1
			l0-0.3l0.1-0.1c0.6,0,1.1,0,1.6-1.1c0.2-0.3,0.3-0.7,2.1-5.3c0.6-1.5,1.2-3.1,1.4-3.6l1-0.5H183.2z M180.9,74.6h3.1l-1.5-4.2
			L180.9,74.6z"/>
		<path class="st0" d="M192.8,79.9c-0.3,0-1.5-0.1-1.8-0.1h-0.3c-0.3,0-1.5,0.1-1.8,0.1l0-0.1l0-0.3l0.1-0.1c0.3,0,0.7,0,0.9-0.1
			c0.2-0.1,0.3-0.4,0.4-0.9c0-0.3,0-0.7,0-2v-4.2c0-0.4,0-1,0-1.6c0-0.5-0.2-0.8-0.4-0.9c-0.2-0.1-0.3-0.2-0.9-0.2l-0.1-0.1l0-0.3
			l0-0.1c0.3,0,1,0.1,1.5,0.1h0.6c0.5,0,1.3,0,1.6,0c2.9,0,4,1.2,4,2.8c0,1.8-1.5,2.7-2.7,3c0.7,1,1.4,1.9,2.2,2.8
			c0.9,1,1.4,1.5,2.8,1.7l0.1,0.1l0,0.3l0,0.1c-0.5,0-1.2,0.1-1.5,0.1c-1.1,0-1.6-0.5-2.6-1.8c-0.1-0.1-1.4-1.9-2.2-3.1h-1.2
			c0,1.2,0,2.9,0,3.3c0,0.6,0.3,0.8,0.4,0.9c0.2,0.1,0.3,0.2,0.9,0.2l0.1,0.1L192.8,79.9L192.8,79.9z M192.9,74.3
			c1.8,0,2.5-0.9,2.5-2.3c0-1.3-1-2.1-2.5-2.1h-1.4c-0.1,1.2-0.1,1.7-0.1,2.2v1.6c0,0.6,0.1,0.6,0.6,0.6H192.9z"/>
		<path class="st0" d="M204.4,69l2.7,7.3c0.5,1.3,0.6,1.7,0.8,2c0.5,1.1,1,1.1,1.6,1.1l0.1,0.1l0,0.3l0,0.1c-0.3,0-1.3-0.1-1.6-0.1
			h-0.5c-0.3,0-1.5,0.1-1.8,0.1l0-0.1l0-0.3l0.1-0.1c0.6,0,1-0.1,1-0.7c0-0.5-0.4-1.4-0.9-2.7l-0.3-0.8h-3.6l-0.3,0.8
			c-0.5,1.3-0.9,2.2-0.9,2.7c0,0.6,0.4,0.7,1,0.7l0.1,0.1l0,0.3l0,0.1c-0.3,0-1.4-0.1-1.7-0.1h-0.3c-0.3,0-1.3,0.1-1.6,0.1l0-0.1
			l0-0.3l0.1-0.1c0.6,0,1.1,0,1.6-1.1c0.2-0.3,0.3-0.7,2.1-5.3c0.6-1.5,1.2-3.1,1.4-3.6l1-0.5H204.4z M202.1,74.6h3.1l-1.5-4.2
			L202.1,74.6z"/>
		<path class="st0" d="M215.1,69.7c-0.2-0.1-0.5-0.2-0.9-0.2l-0.1-0.1l0-0.3l0-0.1c0.3,0,1.5,0.1,1.8,0.1h0.3c0.3,0,1.5-0.1,1.8-0.1
			l0,0.1l0,0.3l-0.1,0.1c-0.3,0-0.7,0-0.9,0.2c-0.2,0.1-0.4,0.3-0.4,0.9c0,0.6,0,0.9,0,2.5v3c0,1.5,0,1.8,0,2.3l0,0.3
			c0,0.2,0.1,0.3,0.3,0.3h1.4c2.6,0,2.3-0.1,2.6-1.3l0-0.1h0.4l-0.3,2.1l-0.1,0.2c-0.2,0-1.3-0.1-1.9-0.1h-3.3
			c-0.3,0-1.5,0.1-1.8,0.1l0-0.1l0-0.3l0.1-0.1c0.3,0,0.7,0,0.9-0.2c0.2-0.1,0.3-0.3,0.4-0.9c0-0.3,0-0.7,0-2v-3.3c0-1.5,0-2,0-2.5
			C215.4,70,215.2,69.8,215.1,69.7z"/>
		<path class="st0" d="M227.7,69l2.7,7.3c0.5,1.3,0.6,1.7,0.8,2c0.5,1.1,1,1.1,1.6,1.1l0.1,0.1l0,0.3l0,0.1c-0.3,0-1.3-0.1-1.6-0.1
			h-0.5c-0.3,0-1.5,0.1-1.8,0.1l0-0.1l0-0.3l0.1-0.1c0.6,0,1-0.1,1-0.7c0-0.5-0.4-1.4-0.9-2.7l-0.3-0.8h-3.6l-0.3,0.8
			c-0.5,1.3-0.9,2.2-0.9,2.7c0,0.6,0.4,0.7,1,0.7l0.1,0.1l0,0.3l0,0.1c-0.3,0-1.4-0.1-1.7-0.1H223c-0.3,0-1.3,0.1-1.6,0.1l0-0.1
			l0-0.3l0.1-0.1c0.5,0,1.1,0,1.6-1.1c0.2-0.3,0.3-0.7,2.1-5.3c0.6-1.5,1.2-3.1,1.4-3.6l1-0.5H227.7z M225.4,74.6h3.1l-1.5-4.2
			L225.4,74.6z"/>
		<path class="st0" d="M248.2,69.2l0,0.3l-0.1,0.1c-0.3,0-0.7,0-0.9,0.2c-0.2,0.1-0.3,0.3-0.4,0.9c0,0.6,0,0.9,0,2.5v2.8
			c0,2.4,0,2.9,0.1,3.9l-0.1,0.1l-0.9-0.1l-0.2-0.2l-5.8-8.6c0,0.4,0,0.8,0,2v3c0,0.5,0,1.8,0,2.3c0,0.5,0.2,0.8,0.4,0.9
			c0.2,0.1,0.4,0.2,0.9,0.2l0.1,0.1l0,0.3l0,0.1c-0.3,0-1.4-0.1-1.7-0.1h-0.3c-0.3,0-1.5,0.1-1.8,0.1l0-0.1l0-0.3l0.1-0.1
			c0.4,0,0.6,0,0.9-0.2c0.1-0.1,0.3-0.3,0.4-0.9c0-0.3,0-0.7,0-2v-3.3c0-1.5,0-2,0-2.5c0-0.5-0.2-0.8-0.4-0.9
			c-0.2-0.1-0.5-0.2-0.9-0.2l-0.1-0.1l0-0.3l0-0.1c0.3,0,1.2,0.1,1.6,0.1h0.6c0.2,0,0.5,0,0.7-0.1l0.1,0c0.2,0.6,1.2,2.2,2.1,3.6
			c1.6,2.6,3,4.4,3.3,4.8c0-0.3,0-0.4,0-1.3v-3.3c0-1.5,0-2,0-2.5c0-0.6-0.2-0.8-0.4-0.9c-0.2-0.1-0.5-0.2-0.9-0.2l-0.1-0.1l0-0.3
			l0-0.1c0.3,0,1.2,0.1,1.5,0.1h0.8C246.9,69.2,247.9,69.1,248.2,69.2L248.2,69.2z"/>
		<path class="st0" d="M260.1,69.2l0,0.3l-0.1,0.1c-0.3,0-0.7,0-0.9,0.2c-0.2,0.1-0.4,0.3-0.4,0.9c0,0.5,0,1,0,2.5v3.1
			c0,2.1-1.2,3.8-3.9,3.8c-3,0-4.1-1.7-4.1-3.8v-3.1c0-1.5,0-2,0-2.5c0-0.6-0.2-0.8-0.4-0.9c-0.2-0.1-0.5-0.2-0.9-0.2l-0.1-0.1
			l0-0.3l0-0.1c0.3,0,1.5,0.1,1.8,0.1h0.3c0.3,0,1.5-0.1,1.8-0.1l0,0.1l0,0.3l-0.1,0.1c-0.3,0-0.7,0-0.9,0.2
			c-0.2,0.1-0.4,0.3-0.4,0.9c0,0.6,0,0.9,0,2.5v2.7c0,2.3,1.1,3.3,3,3.3c1.9,0,3-0.9,3-3.3v-2.7c0-1.6,0-1.9,0-2.5
			c0-0.6-0.2-0.8-0.4-0.9c-0.2-0.1-0.5-0.2-0.9-0.2l-0.1-0.1l0-0.3l0-0.1c0.3,0,1.3,0.1,1.6,0.1h0.4
			C258.6,69.2,259.7,69.1,260.1,69.2L260.1,69.2z"/>
		<path class="st0" d="M265.8,69.2c0.6,0,2.5-0.1,2.7-0.1l0.1,0.2l-0.1,1.8h-0.4l-0.1-0.1c-0.1-1-0.1-1-2.7-1h-1.6l0,0.6
			c0,0.6,0,0.9,0,2.5v0.8c1.3,0,2.7,0,2.9-0.3c0.2-0.2,0.3-0.3,0.3-0.6l0.1-0.1l0.3,0l0.1,0c0,0.5-0.1,0.8-0.1,1.3
			c0,0.5,0,0.9,0.1,1.4l-0.1,0l-0.3,0l-0.1,0c0-0.3-0.1-0.6-0.3-0.8c-0.3-0.3-1.5-0.2-2.9-0.2V76c0,1.5,0,1.8,0.1,2.7
			c0,0.2,0.1,0.3,0.3,0.3h1.4c2.6,0,2.7-0.1,3-1.3l0.1-0.1h0.4l-0.3,2.1l-0.1,0.2c-0.2,0-1.8-0.1-2.3-0.1H263
			c-0.3,0-1.5,0.1-1.8,0.1l0-0.1l0-0.3l0.1-0.1c0.3,0,0.7,0,0.9-0.2c0.2-0.1,0.4-0.3,0.4-0.9c0-0.3,0-0.7,0-2v-3.3c0-1.5,0-2,0-2.5
			c0-0.6-0.2-0.8-0.4-0.9c-0.2-0.1-0.5-0.2-0.9-0.2l-0.1-0.1l0-0.3l0-0.1c0.3,0,1.5,0.1,2,0.1H265.8z"/>
		<path class="st0" d="M274.4,80l-2.6-7.3c-0.5-1.3-0.6-1.7-0.8-2c-0.5-1.1-1-1.1-1.6-1.1l-0.1-0.1l0-0.3l0-0.1
			c0.3,0,1.3,0.1,1.6,0.1h0.6c0.3,0,1.5-0.1,1.8-0.1l0,0.1l0,0.3l-0.1,0.1c-0.6,0-1,0.1-1,0.7c0,0.5,0.4,1.4,0.9,2.7l1.1,3
			c0.4,1.1,0.7,2,1,2.7c0.2-0.6,0.6-1.5,1-2.7l1.1-3c0.5-1.3,0.9-2.2,0.9-2.7c0-0.6-0.4-0.7-1-0.7l-0.1-0.1l0-0.3l0-0.1
			c0.3,0,1.4,0.1,1.7,0.1h0.3c0.3,0,1.3-0.1,1.6-0.1l0,0.1l0,0.3l-0.1,0.1c-0.6,0-1,0-1.6,1.1c-0.1,0.3-0.3,0.7-2.1,5.3
			c-0.6,1.5-1.4,3.4-1.5,3.9l-0.8,0.2H274.4z"/>
		<path class="st0" d="M285.5,69l2.7,7.3c0.5,1.3,0.6,1.7,0.8,2c0.5,1.1,1,1.1,1.6,1.1l0.1,0.1l0,0.3l0,0.1c-0.3,0-1.3-0.1-1.6-0.1
			h-0.5c-0.3,0-1.5,0.1-1.8,0.1l0-0.1l0-0.3l0.1-0.1c0.6,0,1-0.1,1-0.7c0-0.5-0.4-1.4-0.9-2.7l-0.3-0.8h-3.6l-0.3,0.8
			c-0.5,1.3-0.9,2.2-0.9,2.7c0,0.6,0.4,0.7,1,0.7l0.1,0.1l0,0.3l0,0.1c-0.3,0-1.4-0.1-1.7-0.1h-0.3c-0.3,0-1.3,0.1-1.6,0.1l0-0.1
			l0-0.3l0.1-0.1c0.6,0,1.1,0,1.6-1.1c0.2-0.3,0.3-0.7,2.1-5.3c0.6-1.5,1.2-3.1,1.4-3.6l1-0.5H285.5z M283.2,74.6h3.1l-1.5-4.2
			L283.2,74.6z"/>
		<path class="st0" d="M299.9,69.2c0.6,0,2.5-0.1,2.7-0.1l0.1,0.2l-0.1,1.8h-0.4l-0.1-0.1c-0.1-1-0.1-1-2.7-1h-1.6l0,0.6
			c0,0.6,0,0.9,0,2.5v0.8c1.3,0,2.7,0,2.9-0.3c0.2-0.2,0.3-0.3,0.3-0.6l0.1-0.1l0.3,0l0.1,0c0,0.5-0.1,0.8-0.1,1.3
			c0,0.5,0,0.9,0.1,1.4l-0.1,0l-0.3,0l-0.1,0c0-0.3-0.1-0.6-0.3-0.8c-0.3-0.3-1.5-0.2-2.9-0.2V76c0,1.5,0,1.8,0.1,2.7
			c0,0.2,0.1,0.3,0.3,0.3h1.4c2.6,0,2.7-0.1,3-1.3l0.1-0.1h0.4l-0.3,2.1l-0.1,0.2c-0.2,0-1.8-0.1-2.3-0.1H297
			c-0.3,0-1.5,0.1-1.8,0.1l0-0.1l0-0.3l0.1-0.1c0.3,0,0.7,0,0.9-0.2c0.2-0.1,0.4-0.3,0.4-0.9c0-0.3,0-0.7,0-2v-3.3c0-1.5,0-2,0-2.5
			c0-0.6-0.2-0.8-0.4-0.9c-0.2-0.1-0.5-0.2-0.9-0.2l-0.1-0.1l0-0.3l0-0.1c0.3,0,1.5,0.1,2,0.1H299.9z"/>
		<path class="st0" d="M308.5,80l-2.6-7.3c-0.5-1.3-0.6-1.7-0.8-2c-0.5-1.1-1-1.1-1.6-1.1l-0.1-0.1l0-0.3l0-0.1
			c0.3,0,1.3,0.1,1.6,0.1h0.5c0.3,0,1.5-0.1,1.8-0.1l0,0.1l0,0.3l-0.1,0.1c-0.6,0-1,0.1-1,0.7c0,0.5,0.4,1.4,0.9,2.7l1.1,3
			c0.4,1.1,0.7,2,1,2.7c0.2-0.6,0.6-1.5,1-2.7l1.1-3c0.5-1.3,0.9-2.2,0.9-2.7c0-0.6-0.4-0.7-1-0.7l-0.1-0.1l0-0.3l0-0.1
			c0.3,0,1.4,0.1,1.7,0.1h0.3c0.3,0,1.3-0.1,1.6-0.1l0,0.1l0,0.3l-0.1,0.1c-0.6,0-1,0-1.6,1.1c-0.1,0.3-0.3,0.7-2.1,5.3
			c-0.6,1.5-1.4,3.4-1.5,3.9l-0.8,0.2H308.5z"/>
		<path class="st0" d="M319.5,69l2.7,7.3c0.5,1.3,0.6,1.7,0.8,2c0.5,1.1,1,1.1,1.6,1.1l0.1,0.1l0,0.3l0,0.1c-0.3,0-1.3-0.1-1.6-0.1
			h-0.5c-0.3,0-1.5,0.1-1.8,0.1l0-0.1l0-0.3l0.1-0.1c0.6,0,1-0.1,1-0.7c0-0.5-0.4-1.4-0.9-2.7l-0.3-0.8h-3.6l-0.3,0.8
			c-0.5,1.3-0.9,2.2-0.9,2.7c0,0.6,0.4,0.7,1,0.7l0.1,0.1l0,0.3l0,0.1c-0.3,0-1.4-0.1-1.7-0.1h-0.3c-0.3,0-1.3,0.1-1.6,0.1l0-0.1
			l0-0.3l0.1-0.1c0.5,0,1.1,0,1.6-1.1c0.2-0.3,0.3-0.7,2.1-5.3c0.6-1.5,1.2-3.1,1.4-3.6l1-0.5H319.5z M317.2,74.6h3.1l-1.5-4.2
			L317.2,74.6z"/>
		<path class="st0" d="M335.9,69.2l0,0.3l-0.1,0.1c-0.3,0-0.7,0-0.9,0.2c-0.2,0.1-0.3,0.3-0.4,0.9c0,0.6,0,0.9,0,2.5v2.8
			c0,2.4,0,2.9,0.1,3.9l-0.1,0.1l-0.9-0.1l-0.2-0.2l-5.8-8.6c0,0.4,0,0.8,0,2v3c0,0.5,0,1.8,0,2.3c0,0.5,0.2,0.8,0.4,0.9
			c0.2,0.1,0.4,0.2,0.9,0.2l0.1,0.1l0,0.3l0,0.1c-0.3,0-1.4-0.1-1.7-0.1H327c-0.3,0-1.5,0.1-1.8,0.1l0-0.1l0-0.3l0.1-0.1
			c0.4,0,0.6,0,0.9-0.2c0.1-0.1,0.3-0.3,0.4-0.9c0-0.3,0-0.7,0-2v-3.3c0-1.5,0-2,0-2.5c0-0.5-0.2-0.8-0.4-0.9
			c-0.2-0.1-0.5-0.2-0.9-0.2l-0.1-0.1l0-0.3l0-0.1c0.3,0,1.2,0.1,1.6,0.1h0.6c0.2,0,0.5,0,0.7-0.1l0.1,0c0.2,0.6,1.2,2.2,2.1,3.6
			c1.6,2.6,3,4.4,3.3,4.8c0-0.3,0-0.4,0-1.3v-3.3c0-1.5,0-2,0-2.5c0-0.6-0.2-0.8-0.4-0.9c-0.2-0.1-0.5-0.2-0.9-0.2l-0.1-0.1l0-0.3
			l0-0.1c0.3,0,1.2,0.1,1.5,0.1h0.8C334.7,69.2,335.6,69.1,335.9,69.2L335.9,69.2z"/>
		<path class="st0" d="M345.9,79.4c-1.1,0.3-1.8,0.6-3.4,0.6c-3.4,0-5.2-2.5-5.2-5.4c0-3.1,1.9-5.5,5.4-5.5c0.8,0,2.2,0.2,3.3,0.6
			l0,0.1l-0.2,1.5h-0.5l-0.1,0c-0.1-1.1-1.5-1.3-2.7-1.3c-1.1,0-1.9,0.2-2.5,0.7c-1,0.8-1.5,2.3-1.5,3.9c0,2.8,1.6,4.5,4.1,4.5
			c0.7,0,1.4-0.1,2-0.3c0.1,0,0.1-0.2,0.1-0.3c0-0.3,0-1.1,0-1.5c0-0.6-0.2-0.8-0.4-0.9c-0.2-0.1-0.6-0.2-1-0.2l-0.1-0.1l0-0.4
			l0-0.1c0.3,0,1.5,0.1,1.8,0.1h0.5c0.3,0,1.1-0.1,1.4-0.1l0,0.1l0,0.4l-0.1,0.1c-0.6,0-0.8,0.4-0.9,1.1c0,0.6,0,1.1,0,1.7
			C345.9,78.7,345.9,79.2,345.9,79.4L345.9,79.4z"/>
		<path class="st0" d="M352.9,69.2c0.6,0,2.5-0.1,2.7-0.1l0.1,0.2l-0.1,1.8h-0.4l-0.1-0.1c-0.1-1-0.1-1-2.7-1h-1.6l0,0.6
			c0,0.6,0,0.9,0,2.5v0.8c1.3,0,2.7,0,2.9-0.3c0.2-0.2,0.3-0.3,0.3-0.6l0.1-0.1l0.3,0l0.1,0c0,0.5-0.1,0.8-0.1,1.3
			c0,0.5,0,0.9,0.1,1.4l-0.1,0l-0.3,0l-0.1,0c0-0.3-0.1-0.6-0.3-0.8c-0.3-0.3-1.5-0.2-2.9-0.2V76c0,1.5,0,1.8,0.1,2.7
			c0,0.2,0.1,0.3,0.3,0.3h1.4c2.6,0,2.7-0.1,3-1.3l0.1-0.1h0.4l-0.3,2.1l-0.1,0.2c-0.2,0-1.8-0.1-2.3-0.1h-3.3
			c-0.3,0-1.5,0.1-1.8,0.1l0-0.1l0-0.3l0.1-0.1c0.3,0,0.7,0,0.9-0.2c0.2-0.1,0.4-0.3,0.4-0.9c0-0.3,0-0.7,0-2v-3.3c0-1.5,0-2,0-2.5
			c0-0.6-0.2-0.8-0.4-0.9c-0.2-0.1-0.5-0.2-0.9-0.2l-0.1-0.1l0-0.3l0-0.1c0.3,0,1.5,0.1,2,0.1H352.9z"/>
		<path class="st0" d="M358.3,69.7c-0.2-0.1-0.5-0.2-0.9-0.2l-0.1-0.1l0-0.3l0-0.1c0.3,0,1.5,0.1,1.8,0.1h0.3c0.3,0,1.5-0.1,1.8-0.1
			l0,0.1l0,0.3l-0.1,0.1c-0.3,0-0.7,0-0.9,0.2c-0.2,0.1-0.4,0.3-0.4,0.9c0,0.6,0,0.9,0,2.5v3c0,1.5,0,1.8,0,2.3l0,0.3
			c0,0.2,0.1,0.3,0.3,0.3h1.4c2.6,0,2.3-0.1,2.6-1.3l0-0.1h0.4l-0.3,2.1l-0.1,0.2c-0.2,0-1.3-0.1-1.9-0.1h-3.3
			c-0.3,0-1.5,0.1-1.8,0.1l0-0.1l0-0.3l0.1-0.1c0.3,0,0.7,0,0.9-0.2c0.2-0.1,0.3-0.3,0.4-0.9c0-0.3,0-0.7,0-2v-3.3c0-1.5,0-2,0-2.5
			C358.6,70,358.4,69.8,358.3,69.7z"/>
		<path class="st0" d="M369.6,69.2l0,0.3l-0.1,0.1c-0.3,0-0.7,0-0.9,0.2c-0.2,0.1-0.4,0.3-0.4,0.9c0,0.6,0,0.9,0,2.5v3
			c0,1.5,0,1.8,0,2.3c0,0.6,0.2,0.8,0.4,0.9c0.2,0.1,0.5,0.2,0.9,0.2l0.1,0.1l0,0.3l0,0.1c-0.3,0-1.5-0.1-1.8-0.1h-0.3
			c-0.3,0-1.5,0.1-1.8,0.1l0-0.1l0-0.3l0.1-0.1c0.3,0,0.7,0,0.9-0.2c0.2-0.1,0.4-0.3,0.4-0.9c0-0.3,0-0.7,0-2v-3.3c0-1.5,0-2,0-2.5
			c0-0.6-0.2-0.8-0.4-0.9c-0.2-0.1-0.5-0.2-0.9-0.2l-0.1-0.1l0-0.3l0-0.1c0.3,0,1.5,0.1,1.8,0.1h0.3
			C368.1,69.2,369.3,69.1,369.6,69.2L369.6,69.2z"/>
		<path class="st0" d="M371.2,70.9l0.3-1.7l0.1-0.1c2.7,0.1,4.7,0.1,5.2,0.1h1.1c0.3,0,1,0,1.3-0.1l0.1,0.2l-0.1,0.4
			c-1.2,1.2-6.2,8.6-6.2,9.2l0.1,0.2h1.2c3.9,0,4.3,0,4.6-1.3l0.1-0.1h0.4l-0.3,2.1l-0.1,0.2c-0.3,0-3.2-0.1-3.8-0.1h-2.6
			c-0.5,0-1.1,0-1.7,0.1l-0.2-0.2v-0.4c1.3-1.3,6.1-8.4,6.1-9.2l-0.2-0.2h-2.1c-2.4,0-2.8,0-3,1l-0.1,0.1h-0.3L371.2,70.9z"/>
		<path class="st0" d="M386.3,69l2.7,7.3c0.5,1.3,0.6,1.7,0.8,2c0.5,1.1,1,1.1,1.6,1.1l0.1,0.1l0,0.3l0,0.1c-0.3,0-1.3-0.1-1.6-0.1
			h-0.5c-0.3,0-1.5,0.1-1.8,0.1l0-0.1l0-0.3l0.1-0.1c0.6,0,1-0.1,1-0.7c0-0.5-0.4-1.4-0.9-2.7l-0.3-0.8h-3.6l-0.3,0.8
			c-0.5,1.3-0.9,2.2-0.9,2.7c0,0.6,0.4,0.7,1,0.7l0.1,0.1l0,0.3l0,0.1c-0.3,0-1.4-0.1-1.7-0.1h-0.3c-0.3,0-1.3,0.1-1.6,0.1l0-0.1
			l0-0.3l0.1-0.1c0.5,0,1.1,0,1.6-1.1c0.2-0.3,0.3-0.7,2.1-5.3c0.6-1.5,1.2-3.1,1.4-3.6l1-0.5H386.3z M383.9,74.6h3.1l-1.5-4.2
			L383.9,74.6z"/>
		<path class="st0" d="M397.1,69.9c-1.1,0-1.9,0.2-2.5,0.7c-1,0.8-1.5,2.3-1.5,3.9c0,3,1.9,4.6,4.4,4.6c0.9,0,2.2-0.2,3.2-0.9
			l0.2,0.2l-0.4,0.7c-1.1,0.6-2.1,0.8-3.3,0.8c-3.2,0-5.4-2.2-5.4-5.4c0-3,1.9-5.5,5.4-5.5c0.8,0,2.2,0.1,3.3,0.6l0,0.1l-0.2,1.5
			h-0.5l0-0.1C399.7,70.2,398.3,69.9,397.1,69.9z"/>
		<path class="st0" d="M406.2,69.2l0,0.3l-0.1,0.1c-0.3,0-0.7,0-0.9,0.2c-0.2,0.1-0.4,0.3-0.4,0.9c0,0.6,0,0.9,0,2.5v3
			c0,1.5,0,1.8,0,2.3c0,0.6,0.2,0.8,0.4,0.9c0.2,0.1,0.5,0.2,0.9,0.2l0.1,0.1l0,0.3l0,0.1c-0.3,0-1.5-0.1-1.8-0.1H404
			c-0.3,0-1.5,0.1-1.8,0.1l0-0.1l0-0.3l0.1-0.1c0.3,0,0.7,0,0.9-0.2c0.2-0.1,0.4-0.3,0.4-0.9c0-0.3,0-0.7,0-2v-3.3c0-1.5,0-2,0-2.5
			c0-0.6-0.2-0.8-0.4-0.9c-0.2-0.1-0.5-0.2-0.9-0.2l-0.1-0.1l0-0.3l0-0.1c0.3,0,1.5,0.1,1.8,0.1h0.3
			C404.6,69.2,405.8,69.1,406.2,69.2L406.2,69.2z"/>
		<path class="st0" d="M418.2,74.5c0,2.8-1.9,5.5-5.4,5.5c-3.4,0-5.2-2.5-5.2-5.4c0-3.1,2-5.6,5.3-5.6
			C416.3,69,418.2,71.5,418.2,74.5z M417,74.5c0-2.6-1.6-4.6-4.1-4.6c-2.6,0-3.9,2-3.9,4.6c0,2.9,1.7,4.6,4,4.6
			C415.5,79.1,417,77,417,74.5z M411.7,67.6l-0.1-0.3l0-0.1l2.9-1.6c0.4,0,0.6,0.2,0.6,0.5c0,0.1,0,0.2,0,0.3l-3.3,1.2L411.7,67.6z"
			/>
		<path class="st0" d="M430.4,69.2l0,0.3l-0.1,0.1c-0.3,0-0.7,0-0.9,0.2c-0.2,0.1-0.3,0.3-0.4,0.9c0,0.6,0,0.9,0,2.5v2.8
			c0,2.4,0,2.9,0.1,3.9l-0.1,0.1l-0.9-0.1l-0.2-0.2l-5.8-8.6c0,0.4,0,0.8,0,2v3c0,0.5,0,1.8,0,2.3c0,0.5,0.2,0.8,0.4,0.9
			c0.2,0.1,0.4,0.2,0.9,0.2l0.1,0.1l0,0.3l0,0.1c-0.3,0-1.4-0.1-1.7-0.1h-0.3c-0.3,0-1.5,0.1-1.8,0.1l0-0.1l0-0.3l0.1-0.1
			c0.4,0,0.6,0,0.9-0.2c0.1-0.1,0.3-0.3,0.4-0.9c0-0.3,0-0.7,0-2v-3.3c0-1.5,0-2,0-2.5c0-0.5-0.2-0.8-0.4-0.9
			c-0.2-0.1-0.5-0.2-0.9-0.2l-0.1-0.1l0-0.3l0-0.1c0.3,0,1.2,0.1,1.6,0.1h0.6c0.2,0,0.5,0,0.7-0.1l0.1,0c0.2,0.6,1.2,2.2,2.1,3.6
			c1.6,2.6,3,4.4,3.3,4.8c0-0.3,0-0.4,0-1.3v-3.3c0-1.5,0-2,0-2.5c0-0.6-0.2-0.8-0.4-0.9c-0.2-0.1-0.5-0.2-0.9-0.2l-0.1-0.1l0-0.3
			l0-0.1c0.3,0,1.2,0.1,1.5,0.1h0.8C429.2,69.2,430.1,69.1,430.4,69.2L430.4,69.2z"/>
	</g>
</g>
</svg>
